<svg width="24" height="24" viewBox="0 0 24 24" fill="none" xmlns="http://www.w3.org/2000/svg">
<path d="M18.1976 19.3189L5.46967 6.59099C5.17976 6.30108 5.17976 5.82024 5.46967 5.53033C5.75958 5.24042 6.24042 5.24042 6.53033 5.53033L19.2583 18.2583C19.5482 18.5482 19.5482 19.029 19.2583 19.3189C18.9683 19.6088 18.4875 19.6088 18.1976 19.3189Z" fill="#475467"/>
<path d="M19.3189 6.80242L6.59099 19.5303C6.30108 19.8203 5.82024 19.8203 5.53033 19.5303C5.24042 19.2404 5.24042 18.7596 5.53033 18.4697L18.2583 5.74176C18.5482 5.45184 19.029 5.45184 19.3189 5.74176C19.6088 6.03167 19.6088 6.5125 19.3189 6.80242Z" fill="#475467"/>
</svg>