<svg width="576" height="576" viewBox="0 0 576 576" fill="none" xmlns="http://www.w3.org/2000/svg">
<path d="M525.946 240.895C469.797 144.726 317.491 178.975 286.387 132.203C270.455 108.288 252.634 80.4901 226.783 66.0556C202.141 52.2316 173.572 47.3817 148.666 49.2018C59.7197 55.7106 22.0147 135.291 39.0989 222.682C61.9085 339.252 165.243 458.335 288 459.164C352.212 459.648 413.568 436.608 461.606 404.202L462.678 403.476C510.716 370.771 568.823 314.312 525.946 240.895Z" fill="#15B79E"/>
<path opacity="0.7" d="M525.946 240.895C469.797 144.726 317.491 178.975 286.387 132.203C270.455 108.288 252.634 80.4901 226.783 66.0556C202.141 52.2316 173.572 47.3817 148.666 49.2018C59.7197 55.7106 22.0147 135.291 39.0989 222.682C61.9085 339.252 165.243 458.335 288 459.164C352.212 459.648 413.568 436.608 461.606 404.202L462.678 403.476C510.716 370.771 568.823 314.312 525.946 240.895Z" fill="white"/>
<path d="M90.0749 247.887H83.831C77.1308 247.887 70.705 250.549 65.9672 255.287C61.2294 260.025 58.5677 266.451 58.5677 273.151V411.783C58.5677 418.483 61.2294 424.909 65.9672 429.646C70.705 434.384 77.1308 437.046 83.831 437.046H169.494C176.194 437.046 182.62 434.384 187.358 429.646C192.095 424.909 194.757 418.483 194.757 411.783" stroke="#263238" stroke-width="1.10311" stroke-linecap="round" stroke-linejoin="round" stroke-dasharray="4.41 4.41"/>
<path d="M187.776 117.078V89.6947C187.776 85.5975 189.401 81.6675 192.295 78.767C195.189 75.8666 199.116 74.2325 203.213 74.2234H314.611C318.714 74.2234 322.65 75.8534 325.551 78.7548C328.453 81.6563 330.083 85.5915 330.083 89.6947" stroke="#263238" stroke-width="1.10311" stroke-linecap="round" stroke-linejoin="round" stroke-dasharray="4.41 4.41"/>
<path d="M288 543.928C409.851 543.928 508.631 530.126 508.631 513.101C508.631 496.075 409.851 482.273 288 482.273C166.149 482.273 67.369 496.075 67.369 513.101C67.369 530.126 166.149 543.928 288 543.928Z" fill="#15B79E"/>
<path opacity="0.5" d="M288 543.928C409.851 543.928 508.631 530.126 508.631 513.101C508.631 496.075 409.851 482.273 288 482.273C166.149 482.273 67.369 496.075 67.369 513.101C67.369 530.126 166.149 543.928 288 543.928Z" fill="white"/>
<path d="M495.982 153.815V361.244C495.982 368.025 493.289 374.528 488.496 379.324C483.702 384.12 477.2 386.816 470.419 386.819H105.581C98.8001 386.816 92.2981 384.12 87.5044 379.324C82.7108 374.528 80.0179 368.025 80.0179 361.244V153.815C80.0179 153.205 80.0179 152.663 80.0986 152.018C80.5477 145.565 83.4273 139.523 88.1565 135.11C92.8857 130.698 99.1126 128.243 105.581 128.241H470.419C476.895 128.243 483.128 130.705 487.858 135.127C492.589 139.55 495.464 145.603 495.901 152.064C495.959 152.617 495.982 153.216 495.982 153.815Z" fill="white" stroke="#263238" stroke-width="1.10311" stroke-linecap="round" stroke-linejoin="round"/>
<path d="M92.4595 161.603H484.842V353.215C484.842 359.57 482.318 365.664 477.824 370.158C473.33 374.652 467.236 377.176 460.881 377.176H116.433C110.078 377.176 103.983 374.652 99.4892 370.158C94.9956 365.664 92.471 359.57 92.471 353.215V161.603H92.4595Z" fill="#263238"/>
<path opacity="0.2" d="M484.854 161.603V353.215C484.888 359.534 482.41 365.608 477.966 370.102C473.523 374.595 467.477 377.14 461.157 377.176H116.156C109.837 377.14 103.791 374.595 99.3469 370.102C94.9032 365.608 92.4259 359.534 92.4596 353.215V161.603H484.854Z" fill="white"/>
<path d="M495.901 152.064H80.0986C80.5477 145.612 83.4273 139.569 88.1565 135.157C92.8857 130.744 99.1126 128.289 105.581 128.287H470.419C476.887 128.289 483.114 130.744 487.844 135.157C492.573 139.569 495.452 145.612 495.901 152.064Z" fill="#15B79E" stroke="#263238" stroke-width="1.10311" stroke-miterlimit="10"/>
<path d="M131.19 140.129C131.19 141.025 130.924 141.9 130.427 142.645C129.929 143.389 129.222 143.969 128.395 144.312C127.568 144.655 126.657 144.744 125.779 144.57C124.901 144.395 124.094 143.964 123.461 143.331C122.828 142.698 122.397 141.891 122.222 141.013C122.047 140.134 122.137 139.224 122.48 138.397C122.822 137.57 123.403 136.863 124.147 136.365C124.892 135.868 125.767 135.602 126.662 135.602C127.863 135.602 129.015 136.079 129.864 136.928C130.713 137.777 131.19 138.929 131.19 140.129Z" fill="#263238"/>
<path d="M150.336 140.129C150.336 141.025 150.071 141.9 149.573 142.645C149.076 143.389 148.368 143.969 147.541 144.312C146.714 144.655 145.804 144.744 144.925 144.57C144.047 144.395 143.241 143.964 142.607 143.331C141.974 142.698 141.543 141.891 141.368 141.013C141.194 140.134 141.283 139.224 141.626 138.397C141.969 137.57 142.549 136.863 143.293 136.365C144.038 135.868 144.913 135.602 145.809 135.602C147.009 135.602 148.161 136.079 149.01 136.928C149.859 137.777 150.336 138.929 150.336 140.129Z" fill="#263238"/>
<path d="M164.955 144.657C167.455 144.657 169.482 142.63 169.482 140.129C169.482 137.629 167.455 135.602 164.955 135.602C162.455 135.602 160.428 137.629 160.428 140.129C160.428 142.63 162.455 144.657 164.955 144.657Z" fill="#263238"/>
<path d="M484.842 161.603V353.215C484.842 359.57 482.318 365.664 477.824 370.158C473.33 374.652 467.236 377.176 460.881 377.176H116.433C110.886 377.175 105.512 375.25 101.226 371.729C96.9406 368.208 94.0091 363.31 92.9319 357.869V357.8C92.639 356.281 92.4924 354.738 92.4941 353.192V161.603H484.842Z" stroke="#263238" stroke-width="1.10311" stroke-miterlimit="10"/>
<path d="M484.474 191.232C482.794 190.289 481.007 189.55 479.151 189.032L476.997 179.413H467.85L465.719 189.032C463.853 189.541 462.057 190.28 460.374 191.232L452.114 185.944L445.651 192.384L450.847 200.644C449.896 202.328 449.157 204.124 448.646 205.989L439.027 208.12V217.267L448.646 219.422C449.151 221.297 449.89 223.1 450.847 224.79L445.559 233.107L452.033 239.57L460.339 234.282C462.019 235.236 463.811 235.979 465.673 236.494L467.816 246.102H476.928L479.071 236.494C480.927 235.974 482.714 235.231 484.393 234.282L484.819 234.559V191.002L484.474 191.232ZM472.447 224.64C470.109 224.64 467.823 223.947 465.879 222.647C463.935 221.348 462.42 219.501 461.526 217.341C460.632 215.181 460.398 212.804 460.855 210.51C461.312 208.217 462.439 206.111 464.093 204.459C465.747 202.806 467.854 201.682 470.148 201.227C472.441 200.772 474.818 201.008 476.978 201.904C479.137 202.8 480.983 204.317 482.28 206.262C483.577 208.208 484.269 210.494 484.266 212.832C484.266 214.384 483.96 215.92 483.366 217.354C482.772 218.787 481.901 220.089 480.804 221.186C479.706 222.282 478.403 223.152 476.969 223.745C475.535 224.337 473.998 224.642 472.447 224.64Z" fill="#263238"/>
<path d="M319.622 200.506V181.221L299.347 176.717C298.253 172.799 296.707 169.022 294.739 165.462L297.193 161.603H201.462L203.823 165.358C201.832 168.903 200.284 172.679 199.215 176.602L178.929 181.117V200.448L199.215 204.975C200.284 208.927 201.832 212.734 203.823 216.311L192.684 233.833L206.335 247.473L223.845 236.321C227.397 238.32 231.176 239.886 235.1 240.987L239.616 261.204H258.854L263.393 240.941C267.305 239.834 271.071 238.268 274.614 236.275L292.136 247.427L305.775 233.787L294.705 216.265C296.667 212.71 298.213 208.942 299.313 205.033L319.622 200.506ZM249.35 215.781C244.422 215.781 239.605 214.32 235.507 211.582C231.409 208.844 228.215 204.952 226.329 200.399C224.443 195.846 223.95 190.836 224.911 186.002C225.873 181.169 228.246 176.729 231.731 173.244C235.216 169.759 239.656 167.386 244.489 166.424C249.323 165.463 254.333 165.956 258.886 167.842C263.439 169.728 267.331 172.922 270.069 177.02C272.807 181.117 274.268 185.935 274.268 190.863C274.27 194.136 273.626 197.377 272.374 200.401C271.123 203.425 269.287 206.172 266.973 208.486C264.659 210.8 261.912 212.636 258.888 213.887C255.864 215.139 252.623 215.783 249.35 215.781Z" fill="#263238"/>
<path d="M191.67 332.928L192.488 317.618L176.625 313.148C175.888 310.002 174.798 306.949 173.376 304.047L182.961 290.592L172.685 279.199L158.331 287.263C155.587 285.537 152.653 284.133 149.587 283.081L146.845 266.815L131.547 266.112L127.123 282.021C123.971 282.728 120.916 283.811 118.022 285.247L104.579 275.674L93.1623 285.938L101.295 300.303C99.5518 303.035 98.1439 305.967 97.1021 309.036L92.4941 309.796V330.532L95.8579 331.477C96.5558 334.633 97.6351 337.693 99.072 340.589L92.4595 349.862L92.8973 357.8V357.869L99.7287 365.438L114.106 357.316C116.845 359.077 119.789 360.497 122.872 361.544L125.568 377.165L125.695 377.821L140.993 378.628L141.396 377.165L145.417 362.73C148.583 362.021 151.654 360.939 154.564 359.505L167.985 369.066L179.389 358.813L171.325 344.437C173.053 341.708 174.442 338.78 175.461 335.716L191.67 332.928ZM151.039 309.024C148.418 306.109 144.992 304.037 141.193 303.07C137.395 302.103 133.395 302.284 129.7 303.59C126.004 304.896 122.779 307.27 120.432 310.409C118.086 313.549 116.723 317.314 116.517 321.228C116.311 325.142 117.27 329.03 119.273 332.399C121.277 335.768 124.234 338.467 127.772 340.155C131.31 341.843 135.268 342.443 139.147 341.881C143.027 341.318 146.652 339.618 149.564 336.995C153.453 333.481 155.791 328.57 156.068 323.337C156.344 318.103 154.536 312.974 151.039 309.07V309.024Z" fill="#263238"/>
<path d="M314.035 310.107C314.627 307.736 314.94 305.304 314.968 302.861L325.97 297.101L322.929 285.938L310.51 286.514C309.252 284.428 307.756 282.495 306.052 280.754L309.727 268.877L299.704 263.117L291.318 272.264C288.951 271.692 286.529 271.383 284.095 271.342L278.335 260.341L267.183 263.37L267.771 275.8C265.684 277.058 263.751 278.554 262.011 280.259L250.122 276.584L244.362 286.595L253.578 294.97C252.982 297.331 252.677 299.757 252.668 302.193L241.644 307.953L244.685 319.104L257.126 318.517C258.36 320.614 259.849 322.548 261.562 324.277L257.864 336.096L267.898 341.856L276.238 332.778C278.608 333.375 281.041 333.68 283.484 333.688L289.244 344.702L300.396 341.672L299.9 331.05L299.82 329.23C301.935 327.985 303.893 326.488 305.649 324.772L317.526 328.458L322.433 319.887L323.263 318.436L314.035 310.107ZM287.689 316.881C284.829 317.669 281.8 317.591 278.985 316.656C276.17 315.72 273.696 313.97 271.877 311.626C270.058 309.283 268.976 306.452 268.768 303.493C268.56 300.534 269.236 297.579 270.71 295.005C272.183 292.43 274.388 290.351 277.045 289.031C279.702 287.712 282.69 287.211 285.632 287.592C288.574 287.973 291.337 289.22 293.569 291.173C295.802 293.126 297.404 295.699 298.172 298.564C299.196 302.383 298.669 306.451 296.705 309.883C294.741 313.314 291.5 315.83 287.689 316.881Z" fill="#263238"/>
<path d="M441.585 329.737L444.119 314.415L428.613 308.183C428.261 304.918 427.515 301.707 426.39 298.621L437.553 286.191L428.521 273.519L413.13 280.051C410.575 278.003 407.783 276.27 404.813 274.89L403.914 258.198L388.593 255.663L382.314 271.1C379.063 271.482 375.867 272.236 372.787 273.347L360.323 262.184L347.708 271.215L354.252 286.595C352.451 288.842 350.887 291.271 349.586 293.841C349.413 294.198 349.229 294.555 349.068 294.912L332.387 295.834L329.841 311.132L332.352 312.146L345.347 317.388C345.701 320.637 346.448 323.832 347.57 326.903L336.384 339.414L345.427 352.086L360.806 345.519C363.353 347.586 366.143 349.334 369.112 350.726L369.976 367.338L385.286 369.873L391.553 354.551C394.812 354.195 398.015 353.445 401.092 352.316L413.533 363.479L426.205 354.436L419.662 339.045C421.747 336.488 423.507 333.682 424.904 330.693L441.585 329.737ZM398.615 329.046C395.392 331.358 391.555 332.663 387.59 332.795C383.625 332.927 379.71 331.88 376.341 329.787C372.971 327.694 370.297 324.648 368.658 321.036C367.019 317.423 366.489 313.405 367.133 309.491C367.778 305.577 369.569 301.941 372.28 299.045C374.99 296.149 378.499 294.121 382.362 293.219C386.226 292.317 390.27 292.581 393.983 293.977C397.696 295.373 400.912 297.84 403.223 301.064C406.319 305.388 407.571 310.766 406.702 316.014C405.834 321.261 402.917 325.949 398.592 329.046H398.615Z" fill="#263238"/>
<path d="M233.948 216.311H113.472C105.131 216.311 98.3693 223.073 98.3693 231.414V398.212C98.3693 406.553 105.131 413.315 113.472 413.315H233.948C242.289 413.315 249.051 406.553 249.051 398.212V231.414C249.051 223.073 242.289 216.311 233.948 216.311Z" fill="#15B79E" stroke="#263238" stroke-width="1.10311" stroke-miterlimit="10"/>
<path opacity="0.2" d="M233.948 216.311H113.472C105.131 216.311 98.3693 223.073 98.3693 231.414V398.212C98.3693 406.553 105.131 413.315 113.472 413.315H233.948C242.289 413.315 249.051 406.553 249.051 398.212V231.414C249.051 223.073 242.289 216.311 233.948 216.311Z" fill="black"/>
<path d="M263.071 246.298V413.096C263.072 415.08 262.683 417.045 261.924 418.879C261.166 420.712 260.054 422.379 258.651 423.782C257.249 425.186 255.583 426.299 253.75 427.059C251.917 427.819 249.952 428.21 247.968 428.21H127.492C125.509 428.208 123.545 427.816 121.713 427.056C119.881 426.295 118.217 425.182 116.816 423.778C115.415 422.375 114.303 420.709 113.546 418.876C112.788 417.043 112.399 415.079 112.401 413.096V246.298C112.401 242.294 113.99 238.454 116.82 235.622C119.65 232.79 123.488 231.198 127.492 231.195H247.968C251.973 231.195 255.815 232.786 258.647 235.618C261.48 238.451 263.071 242.292 263.071 246.298Z" fill="white" stroke="#263238" stroke-width="1.10311" stroke-linecap="round" stroke-linejoin="round"/>
<path d="M263.071 246.298V255.226H112.401V246.298C112.401 242.294 113.99 238.454 116.82 235.622C119.65 232.79 123.488 231.198 127.492 231.195H247.968C251.973 231.195 255.815 232.786 258.647 235.618C261.48 238.451 263.071 242.292 263.071 246.298Z" fill="#15B79E" stroke="#263238" stroke-width="1.10311" stroke-miterlimit="10"/>
<path d="M163.642 265.571H126.57V271.791H163.642V265.571Z" fill="#15B79E"/>
<path d="M163.642 321.316H126.57V327.537H163.642V321.316Z" fill="#15B79E"/>
<path d="M163.642 371.866H126.57V378.087H163.642V371.866Z" fill="#15B79E"/>
<path d="M231.852 280.973H126.57V285.535H231.852V280.973Z" fill="#263238"/>
<path d="M212.867 289.694H126.57V294.14H212.867V289.694Z" fill="#263238"/>
<path d="M224.168 298.276H126.57V302.723H224.168V298.276Z" fill="#263238"/>
<path d="M224.168 306.847H126.57V311.293H224.168V306.847Z" fill="#263238"/>
<path d="M231.852 331.523H126.57V336.085H231.852V331.523Z" fill="#263238"/>
<path d="M212.867 340.243H126.57V344.69H212.867V340.243Z" fill="#263238"/>
<path d="M224.168 348.826H126.57V353.272H224.168V348.826Z" fill="#263238"/>
<path d="M231.852 387.026H126.57V391.588H231.852V387.026Z" fill="#263238"/>
<path d="M212.867 395.758H126.57V400.205H212.867V395.758Z" fill="#263238"/>
<path d="M224.168 404.341H126.57V408.787H224.168V404.341Z" fill="#263238"/>
<path d="M432.887 115.534V182.949C432.887 185.315 432.421 187.657 431.515 189.842C430.61 192.028 429.282 194.013 427.609 195.685C425.936 197.357 423.95 198.683 421.764 199.588C419.578 200.492 417.235 200.956 414.87 200.955H259.603C257.238 200.956 254.895 200.492 252.709 199.588C250.523 198.683 248.537 197.357 246.864 195.685C245.191 194.013 243.863 192.028 242.958 189.842C242.052 187.657 241.586 185.315 241.586 182.949V115.534C241.589 110.757 243.488 106.176 246.866 102.797C250.245 99.4191 254.826 97.5199 259.603 97.5168H414.87C419.648 97.5168 424.231 99.4151 427.61 102.794C430.989 106.173 432.887 110.756 432.887 115.534Z" fill="white" stroke="#222221" stroke-width="1.10311" stroke-miterlimit="10"/>
<path d="M432.887 115.534V117.078H241.586V115.534C241.589 110.757 243.488 106.176 246.866 102.797C250.245 99.4191 254.826 97.5199 259.603 97.5168H414.87C419.648 97.5168 424.231 99.4151 427.61 102.794C430.989 106.173 432.887 110.756 432.887 115.534Z" fill="#15B79E" stroke="#263238" stroke-width="1.10311" stroke-miterlimit="10"/>
<path d="M269.695 110.523C269.308 110.91 268.816 111.174 268.279 111.281C267.743 111.389 267.186 111.334 266.681 111.125C266.175 110.916 265.743 110.562 265.439 110.107C265.135 109.652 264.973 109.117 264.973 108.57C264.973 108.023 265.135 107.488 265.439 107.033C265.743 106.579 266.175 106.224 266.681 106.015C267.186 105.806 267.743 105.752 268.279 105.859C268.816 105.966 269.308 106.23 269.695 106.618C270.209 107.137 270.497 107.839 270.497 108.57C270.497 109.301 270.209 110.003 269.695 110.523Z" fill="#263238"/>
<path d="M282.505 110.523C282.119 110.91 281.626 111.174 281.089 111.281C280.553 111.389 279.997 111.334 279.491 111.125C278.985 110.916 278.553 110.562 278.249 110.107C277.945 109.652 277.783 109.117 277.783 108.57C277.783 108.023 277.945 107.488 278.249 107.033C278.553 106.579 278.985 106.224 279.491 106.015C279.997 105.806 280.553 105.752 281.089 105.859C281.626 105.966 282.119 106.23 282.505 106.618C283.019 107.137 283.308 107.839 283.308 108.57C283.308 109.301 283.019 110.003 282.505 110.523Z" fill="#263238"/>
<path d="M295.315 110.523C294.929 110.91 294.436 111.174 293.9 111.281C293.363 111.389 292.807 111.334 292.301 111.125C291.796 110.916 291.364 110.562 291.059 110.107C290.755 109.652 290.593 109.117 290.593 108.57C290.593 108.023 290.755 107.488 291.059 107.033C291.364 106.579 291.796 106.224 292.301 106.015C292.807 105.806 293.363 105.752 293.9 105.859C294.436 105.966 294.929 106.23 295.315 106.618C295.829 107.137 296.118 107.839 296.118 108.57C296.118 109.301 295.829 110.003 295.315 110.523Z" fill="#263238"/>
<path d="M316.316 129.473H253.786V183.525H316.316V129.473Z" stroke="#263238" stroke-width="1.10311" stroke-linecap="round" stroke-linejoin="round" stroke-dasharray="4.41 4.41"/>
<path d="M397.935 129.473H325.97V133.275H397.935V129.473Z" fill="#263238"/>
<path d="M381.174 137.342H325.97V141.132H381.174V137.342Z" fill="#263238"/>
<path d="M408.165 145.175H325.97V149.011H408.165V145.175Z" fill="#263238"/>
<path d="M395.965 152.813H325.97V156.649H395.965V152.813Z" fill="#263238"/>
<path d="M438.117 282.851H402.924C398.769 282.851 395.401 286.219 395.401 290.373V311.028C395.401 315.183 398.769 318.551 402.924 318.551H438.117C442.272 318.551 445.64 315.183 445.64 311.028V290.373C445.64 286.219 442.272 282.851 438.117 282.851Z" fill="white" stroke="#263238" stroke-width="1.10311" stroke-linecap="round" stroke-linejoin="round"/>
<path d="M411.61 293.587L401.944 299.647L410.918 307.595" stroke="#263238" stroke-width="1.10311" stroke-linecap="round" stroke-linejoin="round"/>
<path d="M429.212 308.171L437.898 300.776L427.876 294.209" stroke="#263238" stroke-width="1.10311" stroke-linecap="round" stroke-linejoin="round"/>
<path d="M416.31 312.733L423.441 290.362" stroke="#263238" stroke-width="1.10311" stroke-linecap="round" stroke-linejoin="round"/>
<path d="M341.983 507.421C341.983 507.421 308.575 516.994 303.909 518.653C299.67 520.151 288.173 524.183 279.544 522.927C278.711 522.807 277.888 522.63 277.079 522.397C268.335 519.794 264.407 517.363 263.255 511.868C262.103 506.373 266.458 502.318 270.651 499.726C274.844 497.134 297.585 494.427 297.585 494.427L303.08 496.04L341.983 507.421Z" fill="#15B79E"/>
<path d="M279.544 522.927C278.711 522.807 277.888 522.63 277.079 522.397C268.335 519.794 264.407 517.363 263.255 511.868C262.103 506.373 266.458 502.318 270.651 499.726C274.844 497.134 297.585 494.427 297.585 494.427L303.08 496.04C298.103 498.344 279.579 499.599 275.535 501.926C271.492 504.253 269.545 508.631 271.93 514.598C273.208 517.709 276.618 520.761 279.544 522.927Z" fill="white"/>
<path d="M336.96 508.781C336.96 508.781 311.869 515.278 301.916 519.437C291.963 523.595 272.989 525.416 266.204 516.845C259.419 508.274 265.421 500.878 272.183 499.231C278.945 497.583 292.62 494.991 300.084 496.04" stroke="#263238" stroke-width="1.10311" stroke-linecap="round" stroke-linejoin="round"/>
<path d="M280.04 522.478C280.04 522.478 267.276 515.474 271.515 505.659C274.648 498.424 291.675 499.991 300.108 496.04" stroke="#263238" stroke-width="1.10311" stroke-linecap="round" stroke-linejoin="round"/>
<path d="M443.739 524.482C443.393 527.938 442.184 531.175 438.728 533.214C436.424 534.574 433.152 535.38 428.463 535.334C416.748 535.184 394.721 526.809 394.721 526.809L374.101 515.405L384.826 498.436L387.763 493.828L395.343 495.533C395.343 495.533 401.622 499.092 407.935 501.926C414.248 504.76 429.581 505.382 434.984 509.725C440.387 514.068 444.326 518.791 443.739 524.482Z" fill="#15B79E"/>
<path d="M443.739 524.482C443.393 527.938 442.184 531.175 438.728 533.214C439.723 529.817 439.52 526.181 438.152 522.916C435.848 517.743 428.348 513.181 418.487 512.421C408.626 511.661 401.08 507.053 397.129 504.99C394.042 503.389 387.533 499.887 384.826 498.436L387.763 493.828L395.343 495.533C395.343 495.533 401.622 499.092 407.935 501.926C414.248 504.76 429.581 505.382 434.984 509.725C440.387 514.068 444.326 518.791 443.739 524.482Z" fill="white"/>
<path d="M378.674 518.607C393.517 527.235 409.923 532.838 426.943 535.092C430.698 535.542 435.064 535.611 437.576 532.788C438.244 531.973 438.741 531.032 439.038 530.021C439.335 529.009 439.425 527.949 439.304 526.902C438.854 521.602 434.396 517.409 429.512 515.301C424.627 513.193 419.247 512.709 414.052 511.545C408.885 510.381 403.89 508.553 399.191 506.108C395.459 504.161 391.853 501.8 387.74 500.924C383.628 500.048 378.732 501.108 376.531 504.703" stroke="#263238" stroke-width="1.10311" stroke-linecap="round" stroke-linejoin="round"/>
<path d="M436.193 534.228C438.123 533.304 439.811 531.942 441.121 530.25C442.431 528.558 443.328 526.583 443.739 524.483C444.488 519.494 441.642 514.472 437.645 511.407C433.647 508.343 428.636 506.891 423.694 505.866C418.752 504.841 413.695 504.15 408.96 502.272C401.737 499.438 394.606 493.862 387.072 495.855" stroke="#263238" stroke-width="1.10311" stroke-linecap="round" stroke-linejoin="round"/>
<path d="M401.944 340.139L367.05 326.868L366.613 326.695C366.613 326.695 366.739 325.774 366.843 324.391C367.062 321.604 367.177 317.065 365.864 315.533C363.917 313.229 358.41 315.164 353.03 312.699C347.651 310.233 337.709 314.646 337.709 314.646C337.709 314.646 330.52 313.321 327.341 318.505C325.728 322.687 326.281 328.873 326.281 328.873L325.624 329.103C321.466 330.658 298.84 339.172 294.06 342.593C288.772 346.337 282.92 384.779 281.042 396.069C279.164 407.359 275.823 417.531 277.517 421.413C279.21 425.295 303.517 444.015 317.503 448.842C331.488 453.669 381.082 452.298 381.082 452.298C381.082 452.298 381.888 452.079 383.328 451.618C391.715 448.923 421.471 437.794 437.265 411.667C437.288 411.713 421.989 361.567 401.944 340.139ZM307.665 404.801C305.096 406.621 306.513 413.671 306.513 413.671L302.147 409.824L313.114 382.855L317.791 403.591C317.791 403.591 310.234 402.992 307.665 404.801ZM395.401 421.931C394.191 422.553 398.857 409.593 396.645 406.656C394.433 403.718 387.763 403.995 387.763 403.995L388.328 400.458L392.279 380.183L393.592 378.628C393.592 378.628 407.163 401.887 409.594 410.089C409.594 410.112 394.802 421.931 395.401 421.931Z" fill="#15B79E"/>
<path d="M336.061 256.032L318.044 275.155C318.044 275.155 315.567 277.356 316.547 282.897C317.526 288.438 319.83 293.265 321.569 293.587C322.946 293.828 324.342 293.952 325.74 293.956C325.74 293.956 329.599 302.319 332.341 305.603C332.341 305.603 333.285 318.516 332.778 322.099C332.778 322.099 339.253 327.756 345.347 328.47C351.441 329.184 360.853 319.853 360.853 319.853L363.157 308.425C363.157 308.425 368.686 300.038 369.055 297.804C369.423 295.569 371.958 296.145 373.202 295.039C374.446 293.933 377.315 289.014 377.81 284.36C378.305 279.706 378.317 274.36 372.914 275.927C368.225 274.671 371.163 264.764 371.163 264.764L362.926 257.507L336.061 256.032Z" fill="white"/>
<path opacity="0.5" d="M367.05 326.868C366.779 327.58 366.467 328.277 366.117 328.954C363.145 334.552 350.197 345.231 350.197 345.231L346.28 333.193L344.137 345.231C339.817 343.342 326.638 331.926 326.638 331.926C326.638 331.926 326.189 330.854 325.647 329.184L326.304 328.954C326.304 328.954 325.751 322.721 327.364 318.586C330.52 313.402 337.732 314.726 337.732 314.726C337.732 314.726 347.674 310.314 353.053 312.779C358.433 315.245 363.94 313.332 365.887 315.613C367.834 317.894 366.636 326.742 366.636 326.742L367.05 326.868Z" fill="white"/>
<path opacity="0.2" d="M401.944 340.139L367.05 326.868L366.613 326.696C366.613 326.696 366.739 325.774 366.843 324.392L366.117 328.919L360.956 335.923C366.473 337.954 371.859 340.324 377.084 343.019C379.586 344.359 381.626 346.42 382.941 348.935C384.256 351.449 384.784 354.301 384.457 357.12L378.029 412.128L375.391 443.359L383.351 451.618C391.738 448.923 421.494 437.794 437.288 411.667C437.288 411.713 421.989 361.567 401.944 340.139ZM395.401 421.931C394.191 422.554 398.857 409.594 396.645 406.656C394.433 403.718 387.763 403.995 387.763 403.995L388.328 400.458L392.279 380.183L393.592 378.628C393.592 378.628 407.163 401.887 409.594 410.089C409.594 410.112 394.802 421.931 395.401 421.931Z" fill="black"/>
<path opacity="0.2" d="M320.106 406.656L314.68 388.523C314.68 388.523 304.946 355.334 298.276 347.155L300.027 370.495C300.027 370.495 294.267 398.373 289.002 406.656C283.738 414.939 282.563 417.024 289.002 417.024C295.442 417.024 311.121 429.511 311.121 429.511L309.911 419.143L320.106 406.656ZM306.432 413.671L302.066 409.824L313.033 382.855L317.71 403.591C317.71 403.591 310.199 403.027 307.63 404.836C305.061 406.644 306.432 413.671 306.432 413.671Z" fill="black"/>
<path d="M332.341 305.603C332.341 305.603 333.331 315.383 332.341 319.853" stroke="#263238" stroke-width="1.10311" stroke-linecap="round" stroke-linejoin="round"/>
<path d="M361.855 318.54C361.865 315.395 362.229 312.261 362.938 309.197" stroke="#263238" stroke-width="1.10311" stroke-linecap="round" stroke-linejoin="round"/>
<path d="M364.47 263.324C364.47 263.324 370.391 270.754 370.08 276.376C369.769 281.998 369.331 288.656 369.481 295.177C369.631 301.697 359.009 315.36 353.549 316.569C348.088 317.779 343.388 318.09 339.898 314.599C336.407 311.109 332.917 306.259 328.378 300.038C323.839 293.817 324.922 280.166 324.922 280.166" stroke="#263238" stroke-width="1.10311" stroke-linecap="round" stroke-linejoin="round"/>
<path d="M350.208 285.362C349.847 287.403 349.693 289.476 349.747 291.548C349.628 293.295 350.171 295.022 351.268 296.386C351.925 297.055 352.869 297.596 352.996 298.518C352.993 298.932 352.878 299.339 352.663 299.694C352.448 300.048 352.141 300.339 351.775 300.534C351.036 300.906 350.324 301.33 349.644 301.801" stroke="#263238" stroke-width="1.10311" stroke-linecap="round" stroke-linejoin="round"/>
<path d="M340.842 302.515C340.842 302.515 341.522 306.927 347.432 307.849" stroke="#263238" stroke-width="1.10311" stroke-linecap="round" stroke-linejoin="round"/>
<path d="M341.453 288.726C341.453 290.004 340.9 291.03 340.22 291.03C339.54 291.03 338.988 290.004 338.988 288.726C338.988 287.447 339.54 286.422 340.22 286.422C340.9 286.422 341.453 287.458 341.453 288.726Z" fill="#263238"/>
<path d="M359.09 289.279C359.09 290.557 358.537 291.583 357.857 291.583C357.178 291.583 356.625 290.546 356.625 289.279C356.625 288.011 357.178 286.975 357.857 286.975C358.537 286.975 359.09 288 359.09 289.279Z" fill="#263238"/>
<path d="M355.53 283.691C355.53 283.691 361.29 277.931 366.117 284.359" stroke="#263238" stroke-width="2.20621" stroke-linecap="round" stroke-linejoin="round"/>
<path d="M343.4 283.807C343.4 283.807 339.759 279.729 334.022 283.807" stroke="#263238" stroke-width="2.20621" stroke-linecap="round" stroke-linejoin="round"/>
<path d="M332.778 311.04C332.778 311.04 336.292 320.717 344.137 323.47C351.982 326.223 362.396 311.95 362.396 311.95L361.855 310.095C361.855 310.095 355.023 318.966 347.432 317.456C339.84 315.947 332.341 305.648 332.341 305.648L332.778 311.04Z" fill="#263238"/>
<path d="M325.74 293.587C325.74 293.587 321.062 295.234 319.818 291.594C318.574 287.954 314.312 278.358 318.044 275.155C321.777 271.953 324.772 279.383 324.772 279.383" stroke="#263238" stroke-width="1.10311" stroke-linecap="round" stroke-linejoin="round"/>
<path d="M369.469 295.568C369.469 295.568 373.813 296.444 375.057 292.804C376.301 289.163 380.563 279.567 376.831 276.365C373.098 273.162 370.103 280.592 370.103 280.592" stroke="#263238" stroke-width="1.10311" stroke-linecap="round" stroke-linejoin="round"/>
<path d="M324.772 288.726C326.397 288.47 327.863 287.605 328.873 286.306C329.49 285.167 329.881 283.919 330.025 282.632C330.453 280.182 330.669 277.7 330.67 275.213C330.619 274.241 330.709 273.267 330.935 272.321C331.281 271.369 331.814 270.496 332.502 269.752C334.126 267.84 336.096 266.227 337.651 264.246C338.485 263.311 339.119 262.215 339.515 261.027C339.911 259.839 340.061 258.582 339.955 257.334C343.519 260.272 347.684 262.394 352.156 263.551C356.628 264.707 361.299 264.869 365.841 264.027C374.078 262.414 381.969 255.191 381.013 246.113C380.832 244.591 380.179 243.164 379.146 242.032C378.113 240.9 376.752 240.119 375.253 239.8C371.186 238.786 367.534 240.952 363.848 242.346C357.132 244.881 350.554 240.526 343.768 239.8C338.008 239.167 330.831 239.892 327.813 245.664C327.813 245.664 317.445 246.885 312.837 255.456C308.229 264.027 316.95 275.881 316.95 275.881C316.95 275.881 320.406 271.642 324.933 280.212L324.772 288.726Z" fill="#263238"/>
<path d="M365.184 261.135C365.184 261.135 362.488 275.19 369.527 281.998C369.527 281.998 371.071 277.77 372.626 276.733C373.747 274.239 374.222 271.503 374.007 268.776C373.791 266.05 372.892 263.422 371.393 261.135C366.186 252.956 365.184 261.135 365.184 261.135Z" fill="#263238"/>
<path opacity="0.2" d="M378.017 245.146C377.399 247.063 376.352 248.814 374.954 250.266C373.557 251.717 371.846 252.83 369.953 253.521C360.184 257.506 350.703 253.094 340.911 252.23C332.928 251.516 324.115 258.728 323.551 266.93" stroke="white" stroke-width="1.10311" stroke-linecap="round" stroke-linejoin="round"/>
<path opacity="0.2" d="M317.526 264.764C317.645 261.527 318.684 258.391 320.52 255.723C322.356 253.055 324.914 250.964 327.894 249.696" stroke="white" stroke-width="1.10311" stroke-linecap="round" stroke-linejoin="round"/>
<path d="M330.083 318.539C334.379 323.017 339.562 326.548 345.3 328.907C345.3 328.907 356.993 325.509 362.938 317.387" stroke="#263238" stroke-width="1.10311" stroke-linecap="round" stroke-linejoin="round"/>
<path d="M342.032 298.106C347.225 295.724 349.504 289.583 347.122 284.39C344.74 279.197 338.599 276.918 333.406 279.3C328.213 281.682 325.934 287.823 328.316 293.016C330.698 298.209 336.839 300.488 342.032 298.106Z" stroke="#263238" stroke-width="1.10311" stroke-linecap="round" stroke-linejoin="round"/>
<path d="M362.078 299.016C367.749 298.32 371.781 293.159 371.085 287.488C370.389 281.817 365.227 277.784 359.557 278.481C353.886 279.177 349.853 284.339 350.549 290.009C351.246 295.68 356.407 299.713 362.078 299.016Z" stroke="#263238" stroke-width="1.10311" stroke-linecap="round" stroke-linejoin="round"/>
<path d="M332.34 314.68C331.292 314.955 330.311 315.439 329.453 316.102C328.596 316.765 327.882 317.594 327.352 318.539C325.521 321.765 326.627 331.914 326.627 331.914C326.627 331.914 336.084 341.268 344.137 345.22L346.51 331.868L350.196 345.22C350.196 345.22 362.661 336.407 366.117 328.953C366.117 328.953 367.269 320.256 366.117 317.433C365.855 316.65 365.357 315.966 364.69 315.477C364.024 314.988 363.223 314.718 362.396 314.703" stroke="#263238" stroke-width="1.10311" stroke-linecap="round" stroke-linejoin="round"/>
<path d="M317.526 404.006C317.526 404.006 313.828 379.238 308.909 369.135" stroke="#263238" stroke-width="1.10311" stroke-linecap="round" stroke-linejoin="round"/>
<path d="M298.276 347.155C301.14 351.225 303.697 355.503 305.925 359.954" stroke="#263238" stroke-width="1.10311" stroke-linecap="round" stroke-linejoin="round"/>
<path d="M395.401 365.645C396.394 361.504 397.755 357.459 399.468 353.56" stroke="#263238" stroke-width="1.10311" stroke-linecap="round" stroke-linejoin="round"/>
<path d="M387.763 404.006C387.763 404.006 390.424 387.026 393.604 373.041" stroke="#263238" stroke-width="1.10311" stroke-linecap="round" stroke-linejoin="round"/>
<path d="M392.279 380.16C394.851 376.749 398.468 374.274 402.578 373.11" stroke="#263238" stroke-width="1.10311" stroke-linecap="round" stroke-linejoin="round"/>
<path d="M366.624 326.696C366.624 326.696 388.086 335.278 401.944 340.151C401.944 340.151 418.994 356.175 437.276 411.713C437.276 411.713 420.526 439.891 388.662 448.923" stroke="#263238" stroke-width="1.10311" stroke-linecap="round" stroke-linejoin="round"/>
<path d="M394.191 422.934L409.594 410.112C409.594 410.112 417.738 403.926 426.205 408.154" stroke="#263238" stroke-width="1.10311" stroke-linecap="round" stroke-linejoin="round"/>
<path d="M393.604 378.628C393.604 378.628 406.333 397.44 409.594 410.112" stroke="#263238" stroke-width="1.10311" stroke-linecap="round" stroke-linejoin="round"/>
<path d="M306.605 414.386L302.1 410.112C302.1 410.112 295.419 408.96 287.839 414.017" stroke="#263238" stroke-width="1.10311" stroke-linecap="round" stroke-linejoin="round"/>
<path d="M302.101 410.112C302.101 410.112 307.699 391.68 313.217 382.245" stroke="#263238" stroke-width="1.10311" stroke-linecap="round" stroke-linejoin="round"/>
<path d="M326.304 328.954C326.304 328.954 295.419 340.543 292.389 343.93C289.359 347.316 277.851 412.116 277.54 419.535C277.275 426.171 301.329 441.066 313.252 447.345" stroke="#263238" stroke-width="1.10311" stroke-linecap="round" stroke-linejoin="round"/>
<path d="M349.402 350.853C349.402 351.256 349.282 351.651 349.058 351.986C348.834 352.321 348.515 352.583 348.143 352.737C347.77 352.891 347.36 352.932 346.965 352.853C346.569 352.774 346.206 352.58 345.921 352.295C345.636 352.01 345.441 351.646 345.363 351.251C345.284 350.855 345.324 350.445 345.479 350.073C345.633 349.7 345.894 349.382 346.23 349.158C346.565 348.934 346.959 348.814 347.363 348.814C347.631 348.812 347.897 348.864 348.145 348.966C348.393 349.068 348.618 349.218 348.808 349.408C348.997 349.597 349.148 349.823 349.25 350.071C349.351 350.319 349.403 350.585 349.402 350.853Z" fill="#263238"/>
<path d="M385.137 459.395H314.865C314.428 459.395 314.009 459.221 313.7 458.912C313.391 458.603 313.217 458.184 313.217 457.747C313.217 457.31 313.391 456.891 313.7 456.582C314.009 456.273 314.428 456.1 314.865 456.1H385.137C385.574 456.1 385.993 456.273 386.302 456.582C386.611 456.891 386.784 457.31 386.784 457.747C386.784 458.184 386.611 458.603 386.302 458.912C385.993 459.221 385.574 459.395 385.137 459.395Z" fill="#263238"/>
<path d="M387.602 453.888L397.014 409.651C397.16 408.965 397.151 408.255 396.987 407.573C396.823 406.892 396.509 406.255 396.067 405.71C395.625 405.166 395.067 404.727 394.433 404.426C393.8 404.125 393.107 403.97 392.406 403.972H310.268C309.573 403.972 308.886 404.126 308.258 404.424C307.629 404.721 307.075 405.155 306.634 405.692C306.193 406.23 305.877 406.859 305.709 407.533C305.541 408.208 305.524 408.912 305.66 409.593L314.104 452.356C314.311 453.406 314.871 454.354 315.69 455.043C316.509 455.732 317.539 456.121 318.609 456.146L382.879 457.62C383.977 457.645 385.05 457.285 385.912 456.604C386.774 455.923 387.372 454.962 387.602 453.888Z" fill="white" stroke="#263238" stroke-width="1.10311" stroke-linecap="round" stroke-linejoin="round"/>
<path d="M357.627 429.5C357.625 430.796 357.238 432.062 356.517 433.139C355.795 434.215 354.77 435.053 353.573 435.548C352.375 436.042 351.057 436.17 349.786 435.916C348.515 435.662 347.349 435.037 346.433 434.119C345.517 433.202 344.894 432.034 344.642 430.763C344.39 429.492 344.521 428.174 345.017 426.977C345.514 425.78 346.354 424.757 347.432 424.037C348.509 423.318 349.776 422.934 351.072 422.934C351.934 422.934 352.787 423.104 353.583 423.434C354.379 423.764 355.102 424.248 355.711 424.858C356.32 425.467 356.803 426.191 357.131 426.988C357.46 427.785 357.628 428.638 357.627 429.5Z" fill="#263238"/>
<path d="M370.518 408.2H380.275" stroke="#263238" stroke-width="1.10311" stroke-linecap="round" stroke-linejoin="round"/>
<path d="M323.919 408.2H360.956" stroke="#263238" stroke-width="1.10311" stroke-linecap="round" stroke-linejoin="round"/>
<path d="M387.763 500.855L380.275 520.508C380.275 520.508 361.175 515.693 336.718 510.682C311.132 505.44 284.417 498.655 270.559 474.336C268.877 471.375 267.748 467.873 268.543 464.555C270.536 456.157 281.468 453.876 288.668 453.035C293.195 452.546 297.744 452.292 302.296 452.275C304.6 452.275 312.261 451.019 314.116 452.39C316.903 454.423 319.877 456.186 322.998 457.655C327.087 459.394 386.784 456.1 386.784 456.1C387.823 453.835 388.458 451.406 388.662 448.923C398.051 444.154 419.766 440.122 428.982 441.907C443.416 444.706 451.837 453.128 450.236 461.952C448.635 470.776 416.748 494.438 387.763 500.855Z" fill="#263238"/>
<path d="M387.763 500.855C387.763 500.855 369.596 496.04 354.758 486.017C339.921 475.995 328.332 464.36 307.653 466.767" stroke="white" stroke-width="1.10311" stroke-linecap="round" stroke-linejoin="round"/>
<path d="M351.36 483.656C360.737 480.96 367.615 474.889 375.137 469.071C383.072 462.703 391.593 457.103 400.585 452.344" stroke="white" stroke-width="1.10311" stroke-linecap="round" stroke-linejoin="round"/>
<path d="M348.054 290.362H350.807" stroke="#263238" stroke-width="1.10311" stroke-linecap="round" stroke-linejoin="round"/>
</svg>