<svg width="24" height="24" viewBox="0 0 24 24" fill="none" xmlns="http://www.w3.org/2000/svg">
<mask id="mask0_20_3978" style="mask-type:alpha" maskUnits="userSpaceOnUse" x="0" y="0" width="24" height="24">
<rect width="24" height="24" fill="#D9D9D9"/>
</mask>
<g mask="url(#mask0_20_3978)">
<path d="M11.9999 14.9498C11.8666 14.9498 11.7416 14.9289 11.6249 14.8873C11.5082 14.8456 11.3999 14.7748 11.2999 14.6748L6.67491 10.0498C6.49158 9.86643 6.40408 9.63726 6.41241 9.36226C6.42074 9.08726 6.51658 8.8581 6.69991 8.67476C6.88324 8.49143 7.11658 8.39976 7.39991 8.39976C7.68324 8.39976 7.91658 8.49143 8.09991 8.67476L11.9999 12.5748L15.9249 8.64976C16.1082 8.46643 16.3374 8.37893 16.6124 8.38726C16.8874 8.3956 17.1166 8.49143 17.2999 8.67476C17.4832 8.8581 17.5749 9.09143 17.5749 9.37476C17.5749 9.6581 17.4832 9.89143 17.2999 10.0748L12.6999 14.6748C12.5999 14.7748 12.4916 14.8456 12.3749 14.8873C12.2582 14.9289 12.1332 14.9498 11.9999 14.9498Z" fill="#475467"/>
</g>
</svg>