<svg width="16" height="17" viewBox="0 0 16 17" fill="none" xmlns="http://www.w3.org/2000/svg">
<g clip-path="url(#clip0_20_3460)">
<path d="M15.75 8.85938C15.75 4.57812 12.2812 1.10938 8 1.10938C3.71875 1.10938 0.25 4.57812 0.25 8.85938C0.25 12.7275 3.08406 15.9338 6.78906 16.5156V11.0997H4.82031V8.85938H6.78906V7.15188C6.78906 5.20969 7.94531 4.13687 9.71625 4.13687C10.5644 4.13687 11.4513 4.28813 11.4513 4.28813V6.19438H10.4738C9.51125 6.19438 9.21094 6.79187 9.21094 7.40469V8.85938H11.3603L11.0166 11.0997H9.21094V16.5156C12.9159 15.9338 15.75 12.7275 15.75 8.85938Z" fill="#475467"/>
</g>
<defs>
<clipPath id="clip0_20_3460">
<rect width="16" height="16" fill="white" transform="translate(0 0.859375)"/>
</clipPath>
</defs>
</svg>