<svg width="24" height="24" viewBox="0 0 24 24" fill="none" xmlns="http://www.w3.org/2000/svg">
<path d="M18.73 21.75H12.27C11.85 21.75 11.46 21.54 11.23 21.19L8.31001 16.81L6.05 20.68C5.83 21.06 5.44002 21.29 5.01002 21.3C4.59002 21.34 4.17 21.11 3.93 20.74L0.560006 15.68C0.280006 15.26 0.280006 14.71 0.560006 14.29L4.23002 8.78998C4.46002 8.43998 4.85 8.22998 5.27 8.22998H10.2L7.8 4.10999C7.58 3.71999 7.57 3.23999 7.8 2.85999C8.02 2.46999 8.44001 2.22998 8.88001 2.22998H15.72C16.16 2.22998 16.58 2.46999 16.8 2.84999L23.5 14.33C23.74 14.75 23.73 15.25 23.46 15.65L19.78 21.17C19.54 21.54 19.15 21.75 18.73 21.75ZM12.4 20.25H18.6L22.12 14.97L15.57 3.74998H9.31001L12.81 9.74998L15.21 13.87C15.43 14.25 15.44 14.73 15.21 15.12C14.99 15.51 14.57 15.75 14.13 15.75H9.4L12.4 20.25ZM1.9 15L4.96 19.58L7.20002 15.75L10.7 9.74998H5.41001L1.9 15ZM9.81001 14.25H13.7L11.76 10.92L9.81001 14.25Z" fill="#15B79E"/>
</svg>