<svg width="16" height="17" viewBox="0 0 16 17" fill="none" xmlns="http://www.w3.org/2000/svg">
<g clip-path="url(#clip0_20_3472)">
<path d="M8.00315 5.26572C6.01565 5.26572 4.41252 6.86885 4.41252 8.85635C4.41252 10.8438 6.01565 12.447 8.00315 12.447C9.99065 12.447 11.5938 10.8438 11.5938 8.85635C11.5938 6.86885 9.99065 5.26572 8.00315 5.26572ZM8.00315 11.1907C6.71877 11.1907 5.66877 10.1438 5.66877 8.85635C5.66877 7.56885 6.71565 6.52197 8.00315 6.52197C9.29065 6.52197 10.3375 7.56885 10.3375 8.85635C10.3375 10.1438 9.28752 11.1907 8.00315 11.1907ZM12.5781 5.11885C12.5781 5.58447 12.2031 5.95635 11.7407 5.95635C11.275 5.95635 10.9031 5.58135 10.9031 5.11885C10.9031 4.65635 11.2782 4.28135 11.7407 4.28135C12.2031 4.28135 12.5781 4.65635 12.5781 5.11885ZM14.9563 5.96885C14.9031 4.84697 14.6469 3.85322 13.825 3.03447C13.0063 2.21572 12.0125 1.95947 10.8906 1.90322C9.7344 1.8376 6.26877 1.8376 5.11252 1.90322C3.99377 1.95635 3.00002 2.2126 2.17815 3.03135C1.35627 3.8501 1.10315 4.84385 1.0469 5.96572C0.981274 7.12197 0.981274 10.5876 1.0469 11.7438C1.10002 12.8657 1.35627 13.8595 2.17815 14.6782C3.00002 15.497 3.99065 15.7532 5.11252 15.8095C6.26877 15.8751 9.7344 15.8751 10.8906 15.8095C12.0125 15.7563 13.0063 15.5001 13.825 14.6782C14.6438 13.8595 14.9 12.8657 14.9563 11.7438C15.0219 10.5876 15.0219 7.1251 14.9563 5.96885ZM13.4625 12.9845C13.2188 13.597 12.7469 14.0688 12.1313 14.3157C11.2094 14.6813 9.0219 14.597 8.00315 14.597C6.9844 14.597 4.79377 14.6782 3.87502 14.3157C3.26252 14.072 2.79065 13.6001 2.54377 12.9845C2.17815 12.0626 2.26252 9.8751 2.26252 8.85635C2.26252 7.8376 2.18127 5.64697 2.54377 4.72822C2.78752 4.11572 3.2594 3.64385 3.87502 3.39697C4.7969 3.03135 6.9844 3.11572 8.00315 3.11572C9.0219 3.11572 11.2125 3.03447 12.1313 3.39697C12.7438 3.64072 13.2156 4.1126 13.4625 4.72822C13.8281 5.6501 13.7438 7.8376 13.7438 8.85635C13.7438 9.8751 13.8281 12.0657 13.4625 12.9845Z" fill="#475467"/>
</g>
<defs>
<clipPath id="clip0_20_3472">
<rect width="16" height="16" fill="white" transform="translate(0 0.859375)"/>
</clipPath>
</defs>
</svg>