<svg width="16" height="17" viewBox="0 0 16 17" fill="none" xmlns="http://www.w3.org/2000/svg">
<g clip-path="url(#clip0_20_3468)">
<path d="M14 1.85938H1.99687C1.44687 1.85938 1 2.3125 1 2.86875V14.85C1 15.4062 1.44687 15.8594 1.99687 15.8594H14C14.55 15.8594 15 15.4062 15 14.85V2.86875C15 2.3125 14.55 1.85938 14 1.85938ZM5.23125 13.8594H3.15625V7.17812H5.23438V13.8594H5.23125ZM4.19375 6.26562C3.52812 6.26562 2.99063 5.725 2.99063 5.0625C2.99063 4.4 3.52812 3.85938 4.19375 3.85938C4.85625 3.85938 5.39687 4.4 5.39687 5.0625C5.39687 5.72813 4.85938 6.26562 4.19375 6.26562ZM13.0094 13.8594H10.9344V10.6094C10.9344 9.83437 10.9187 8.8375 9.85625 8.8375C8.775 8.8375 8.60938 9.68125 8.60938 10.5531V13.8594H6.53438V7.17812H8.525V8.09062H8.55312C8.83125 7.56562 9.50938 7.0125 10.5188 7.0125C12.6187 7.0125 13.0094 8.39687 13.0094 10.1969V13.8594Z" fill="#475467"/>
</g>
<defs>
<clipPath id="clip0_20_3468">
<rect width="16" height="16" fill="white" transform="translate(0 0.859375)"/>
</clipPath>
</defs>
</svg>