<svg width="32" height="32" viewBox="0 0 32 32" fill="none" xmlns="http://www.w3.org/2000/svg">
<path opacity="0.4" d="M15.6667 12.5733L11.3334 20L10.4934 21.4533L7.20005 27.08C6.96005 27.5067 6.34672 27.52 6.08005 27.1067L1.57338 20.3733C1.42671 20.1467 1.42671 19.8533 1.57338 19.6267L6.46673 12.2933C6.58673 12.1067 6.80004 12 7.02671 12H15.3334L15.6667 12.5733Z" fill="#15B79E"/>
<path d="M30.4533 19.64L21.52 4.33333C21.4134 4.12 21.1867 4 20.9467 4H11.8267C11.3067 4 10.9867 4.56 11.2533 5L15.3333 12L15.6667 12.5733L19.4133 19C19.68 19.44 19.36 20 18.84 20H11.3333L10.4933 21.4533C10.7333 21.0267 11.3467 21.0133 11.6133 21.4267L15.8 27.7067C15.92 27.8933 16.1333 28 16.36 28H24.9733C25.2 28 25.4133 27.8933 25.5333 27.7067L30.44 20.3467C30.5733 20.1333 30.5867 19.8667 30.4533 19.64Z" fill="#15B79E"/>
</svg>