<svg width="576" height="576" viewBox="0 0 576 576" fill="none" xmlns="http://www.w3.org/2000/svg">
<path d="M531.406 329.472C541.845 295.376 547.391 259.972 547.88 224.317C548.456 187.615 544.424 147.928 520.232 120.419C496.477 93.5194 458.358 84.3264 422.496 82.7597C407.969 82.1376 393.132 82.5523 379.342 87.1603C351.498 96.4685 331.983 121.156 307.284 137.03C259.603 167.674 195.183 164.045 149.345 197.384C137.61 206.068 127.396 216.636 119.117 228.66C85.7088 276.526 83.0938 342.835 108.599 395.343C134.104 447.851 185.334 485.96 242.024 499.968C298.714 513.976 359.885 504.726 412.416 479.232C473.622 449.522 511.741 392.648 531.406 329.472Z" fill="#15B79E"/>
<path opacity="0.7" d="M531.406 329.472C541.845 295.376 547.391 259.972 547.88 224.317C548.456 187.615 544.424 147.928 520.232 120.419C496.477 93.5194 458.358 84.3264 422.496 82.7597C407.969 82.1376 393.132 82.5523 379.342 87.1603C351.498 96.4685 331.983 121.156 307.284 137.03C259.603 167.674 195.183 164.045 149.345 197.384C137.61 206.068 127.396 216.636 119.117 228.66C85.7088 276.526 83.0938 342.835 108.599 395.343C134.104 447.851 185.334 485.96 242.024 499.968C298.714 513.976 359.885 504.726 412.416 479.232C473.622 449.522 511.741 392.648 531.406 329.472Z" fill="white"/>
<path d="M446.838 108.645V348.791C446.839 350.49 446.506 352.173 445.856 353.744C445.207 355.314 444.254 356.741 443.052 357.942C441.85 359.144 440.424 360.097 438.853 360.746C437.283 361.396 435.6 361.73 433.901 361.728H113.645C111.943 361.734 110.257 361.404 108.683 360.756C107.11 360.108 105.68 359.156 104.475 357.954C103.271 356.752 102.316 355.323 101.666 353.751C101.015 352.178 100.682 350.493 100.685 348.791V108.645C100.683 106.947 101.017 105.265 101.665 103.695C102.314 102.126 103.266 100.699 104.467 99.498C105.667 98.2966 107.092 97.3434 108.661 96.6932C110.23 96.0429 111.912 95.7082 113.61 95.7082H433.866C435.569 95.7021 437.255 96.0323 438.829 96.6799C440.404 97.3275 441.835 98.2796 443.04 99.4817C444.245 100.684 445.201 102.112 445.853 103.685C446.505 105.257 446.839 106.943 446.838 108.645Z" fill="white"/>
<path d="M446.838 116.064V348.768C446.842 350.469 446.511 352.155 445.863 353.728C445.214 355.301 444.262 356.73 443.06 357.934C441.858 359.138 440.431 360.093 438.859 360.744C437.287 361.395 435.602 361.73 433.901 361.728H113.645C112.429 361.731 111.218 361.56 110.051 361.221L446.838 116.064Z" fill="#263238"/>
<path opacity="0.9" d="M446.838 116.064V348.768C446.842 350.469 446.511 352.155 445.863 353.728C445.214 355.301 444.262 356.73 443.06 357.934C441.858 359.138 440.431 360.093 438.859 360.744C437.287 361.395 435.602 361.73 433.901 361.728H113.645C112.429 361.731 111.218 361.56 110.051 361.221L446.838 116.064Z" fill="white"/>
<path d="M358.053 246.067L375.552 238.188L371.82 217.325L352.512 215.781C350.093 209.338 346.844 203.239 342.847 197.637L348.883 187.419L352.742 180.864L337.766 166.003L321.005 176.072C311.379 169.428 300.444 164.919 288.933 162.847L284.106 143.631H262.956L258.048 162.985C251.511 164.301 245.142 166.349 239.063 169.091L223.868 156.004L206.531 167.812L213.742 186.532C209.156 191.282 205.189 196.593 201.934 202.337L181.981 200.321L174.804 220.239L191.232 231.448C190.434 236.125 190.048 240.862 190.08 245.606C189.942 247.559 189.942 249.518 190.08 251.47L172.639 261.262L178.168 281.664H197.868C199.756 285.724 201.967 289.627 204.48 293.334C205.77 295.231 207.133 297.078 208.57 298.875L200.068 316.443L216.346 330.094L232.047 318.332C238.017 321.782 244.395 324.472 251.032 326.339L254.177 345.324L275.328 347.201L281.664 329.299C288.572 328.612 295.376 327.124 301.939 324.864L315.36 338.273L333.734 327.675L328.677 309.381C334.017 304.905 338.77 299.772 342.824 294.106L361.44 297.446L370.403 278.254L355.772 266.458C357.359 259.779 358.125 252.931 358.053 246.067ZM309.727 246.067C309.726 254.38 306.845 262.436 301.573 268.864C296.301 275.292 288.965 279.695 280.812 281.322C272.66 282.95 264.196 281.702 256.86 277.792C249.524 273.881 243.77 267.549 240.577 259.873C237.384 252.198 236.949 243.653 239.347 235.693C241.745 227.733 246.827 220.85 253.729 216.216C260.63 211.581 268.924 209.482 277.2 210.274C285.475 211.066 293.22 214.702 299.117 220.562C299.762 221.207 300.396 221.875 300.972 222.578C306.58 229.033 309.687 237.286 309.727 245.837V246.067Z" fill="#15B79E" stroke="#263238" stroke-width="1.02934" stroke-miterlimit="10"/>
<path opacity="0.2" d="M355.772 266.4L370.403 278.196L361.44 297.389L342.824 294.048C338.77 299.715 334.017 304.847 328.677 309.324L333.734 327.617L315.36 338.216L301.939 324.864C295.371 327.145 288.559 328.653 281.641 329.357L275.328 347.201L254.189 345.324L251.044 326.339C244.406 324.472 238.029 321.782 232.059 318.332L216.357 330.094L200.079 316.443L208.512 298.875C207.076 297.078 205.713 295.231 204.422 293.334L243.153 264.96C247.269 271.615 253.442 276.746 260.737 279.576C268.032 282.406 276.05 282.781 283.577 280.644C291.104 278.506 297.729 273.973 302.448 267.732C307.167 261.49 309.722 253.88 309.727 246.056V245.825C309.687 237.274 306.581 229.021 300.972 222.566L348.929 187.407L342.893 197.626C346.875 203.234 350.109 209.337 352.512 215.781L371.727 217.325L375.552 238.188L358.099 246.067C358.151 252.914 357.369 259.742 355.772 266.4Z" fill="black"/>
<path d="M430.756 190.61L431.631 190.207C432.122 189.992 432.525 189.618 432.776 189.146C433.027 188.673 433.111 188.129 433.014 187.603L432.829 186.532C432.743 186.005 432.48 185.522 432.085 185.163C431.69 184.803 431.185 184.587 430.652 184.55L429.592 184.47C429.179 184.442 428.78 184.308 428.435 184.08C428.09 183.852 427.81 183.537 427.622 183.168C427.334 182.557 427.035 182.016 426.701 181.405C426.491 181.045 426.381 180.636 426.381 180.219C426.381 179.802 426.491 179.393 426.701 179.032L427.242 178.111C427.511 177.649 427.619 177.112 427.55 176.583C427.481 176.054 427.239 175.562 426.862 175.185L426.102 174.424C425.732 174.029 425.235 173.777 424.698 173.712C424.161 173.647 423.618 173.772 423.164 174.067L422.231 174.62C421.871 174.83 421.461 174.94 421.044 174.94C420.628 174.94 420.218 174.83 419.858 174.62C418.346 173.75 416.722 173.092 415.031 172.662C414.616 172.553 414.239 172.334 413.938 172.027C413.638 171.721 413.427 171.339 413.326 170.922L413.05 169.77C412.927 169.237 412.624 168.764 412.191 168.43C411.758 168.096 411.223 167.922 410.676 167.939H409.617C409.072 167.921 408.538 168.093 408.105 168.425C407.673 168.757 407.368 169.228 407.244 169.759L406.944 170.911C406.841 171.318 406.632 171.691 406.339 171.993C406.045 172.294 405.678 172.513 405.274 172.627C404.675 172.789 404.122 172.973 403.534 173.18C403.136 173.326 402.705 173.362 402.288 173.285C401.87 173.208 401.481 173.021 401.161 172.742L400.205 171.925C399.806 171.577 399.303 171.372 398.775 171.343C398.247 171.314 397.725 171.462 397.29 171.763L396.449 172.328C395.998 172.631 395.663 173.08 395.502 173.6C395.341 174.119 395.362 174.679 395.562 175.185L395.988 176.337C396.141 176.73 396.188 177.156 396.123 177.573C396.058 177.989 395.885 178.382 395.62 178.71C395.24 179.159 394.883 179.631 394.548 180.115C394.313 180.474 393.983 180.76 393.594 180.941C393.206 181.122 392.774 181.191 392.348 181.141L391.196 181.025C390.662 180.967 390.125 181.091 389.67 181.378C389.216 181.664 388.873 182.096 388.696 182.604L388.316 183.652C388.132 184.145 388.117 184.685 388.273 185.188C388.43 185.69 388.749 186.127 389.18 186.428L390.275 187.2C390.616 187.442 390.887 187.769 391.061 188.15C391.235 188.53 391.306 188.949 391.265 189.366C391.2 189.986 391.169 190.609 391.173 191.232C391.16 191.637 391.049 192.032 390.848 192.383C390.647 192.735 390.363 193.032 390.021 193.248L388.869 193.859C388.393 194.116 388.02 194.528 387.81 195.027C387.601 195.525 387.568 196.08 387.717 196.6L387.994 197.637C388.129 198.158 388.438 198.618 388.869 198.94C389.301 199.262 389.829 199.429 390.367 199.411H391.519C391.935 199.404 392.346 199.507 392.71 199.71C393.074 199.912 393.378 200.206 393.592 200.563C393.915 201.128 394.26 201.715 394.618 202.211C394.855 202.555 394.996 202.956 395.029 203.372C395.061 203.789 394.983 204.207 394.802 204.584L394.318 205.586C394.079 206.067 394.011 206.615 394.124 207.14C394.237 207.666 394.524 208.137 394.94 208.477L395.758 209.169C396.167 209.519 396.682 209.72 397.22 209.739C397.758 209.758 398.287 209.593 398.719 209.272L399.56 208.685C399.9 208.44 400.298 208.29 400.715 208.25C401.132 208.209 401.552 208.28 401.933 208.454C402.532 208.742 403.142 209.007 403.776 209.238C404.167 209.383 404.512 209.629 404.777 209.95C405.042 210.272 405.218 210.658 405.285 211.069L405.458 212.095C405.543 212.625 405.807 213.109 406.205 213.47C406.602 213.83 407.111 214.044 407.647 214.076L408.73 214.18C409.26 214.227 409.792 214.095 410.238 213.804C410.685 213.514 411.022 213.083 411.195 212.579L411.529 211.645C411.671 211.246 411.917 210.892 412.241 210.619C412.564 210.346 412.955 210.163 413.372 210.09C414.044 209.988 414.71 209.846 415.365 209.664C415.77 209.549 416.199 209.547 416.606 209.659C417.012 209.77 417.38 209.991 417.669 210.298L418.372 211.012C418.742 211.393 419.229 211.638 419.756 211.709C420.282 211.78 420.817 211.672 421.275 211.404L422.22 210.862C422.693 210.605 423.065 210.195 423.274 209.699C423.483 209.203 423.518 208.65 423.372 208.132L423.107 207.199C422.983 206.786 422.973 206.347 423.078 205.929C423.184 205.512 423.401 205.13 423.706 204.826C424.201 204.344 424.67 203.836 425.111 203.305C425.381 202.968 425.74 202.714 426.147 202.572C426.555 202.429 426.994 202.404 427.415 202.499L428.36 202.671C428.884 202.787 429.433 202.715 429.91 202.469C430.388 202.223 430.764 201.818 430.975 201.324L431.424 200.344C431.66 199.859 431.722 199.307 431.601 198.781C431.479 198.254 431.181 197.786 430.756 197.453L430.042 196.877C429.714 196.618 429.46 196.277 429.307 195.889C429.153 195.5 429.104 195.078 429.166 194.665C429.279 193.959 429.353 193.248 429.385 192.534C429.426 192.121 429.574 191.727 429.814 191.389C430.055 191.052 430.379 190.783 430.756 190.61ZM422.243 191.232C422.243 193.611 421.537 195.936 420.216 197.914C418.894 199.892 417.016 201.433 414.818 202.343C412.621 203.254 410.202 203.492 407.869 203.028C405.536 202.564 403.393 201.418 401.711 199.736C400.029 198.054 398.884 195.911 398.42 193.578C397.956 191.245 398.194 188.827 399.104 186.63C400.015 184.432 401.556 182.554 403.534 181.232C405.512 179.91 407.837 179.205 410.216 179.205C413.39 179.202 416.437 180.458 418.687 182.697C420.937 184.937 422.207 187.977 422.22 191.151L422.243 191.232Z" fill="#15B79E" stroke="#263238" stroke-width="1.02934" stroke-miterlimit="10"/>
<path d="M446.838 108.645V109.302H100.685V108.645C100.683 106.947 101.017 105.265 101.665 103.695C102.314 102.126 103.266 100.699 104.467 99.498C105.667 98.2966 107.092 97.3434 108.661 96.6932C110.23 96.0429 111.912 95.7082 113.61 95.7082H433.866C435.569 95.7021 437.255 96.0323 438.829 96.6799C440.404 97.3275 441.835 98.2796 443.04 99.4817C444.245 100.684 445.201 102.112 445.853 103.685C446.505 105.257 446.839 106.943 446.838 108.645Z" fill="#263238"/>
<path d="M446.838 108.645V348.791C446.839 350.49 446.506 352.173 445.856 353.744C445.206 355.314 444.254 356.741 443.052 357.942C441.85 359.144 440.424 360.097 438.853 360.746C437.283 361.396 435.6 361.73 433.901 361.728H113.645C111.944 361.733 110.258 361.401 108.685 360.753C107.112 360.105 105.683 359.152 104.479 357.95C103.275 356.748 102.32 355.321 101.669 353.749C101.018 352.177 100.683 350.492 100.685 348.791V108.645C100.683 106.947 101.017 105.265 101.665 103.695C102.314 102.126 103.266 100.699 104.467 99.498C105.667 98.2966 107.092 97.3434 108.661 96.6932C110.23 96.0429 111.912 95.7082 113.61 95.7082H433.866C435.569 95.7021 437.255 96.0323 438.829 96.6799C440.404 97.3275 441.835 98.2796 443.04 99.4817C444.245 100.684 445.201 102.112 445.853 103.685C446.505 105.257 446.839 106.943 446.838 108.645Z" stroke="#263238" stroke-width="1.02934" stroke-linecap="round" stroke-linejoin="round"/>
<path d="M100.685 108.645H446.838" stroke="#263238" stroke-width="1.02934" stroke-linecap="round" stroke-linejoin="round"/>
<path d="M129.542 102.528C129.542 103.047 129.388 103.555 129.1 103.987C128.811 104.419 128.401 104.756 127.921 104.955C127.441 105.153 126.913 105.205 126.403 105.104C125.894 105.003 125.426 104.753 125.059 104.385C124.691 104.018 124.441 103.55 124.34 103.04C124.238 102.531 124.29 102.003 124.489 101.523C124.688 101.043 125.025 100.633 125.457 100.344C125.889 100.055 126.396 99.9014 126.916 99.9014C127.612 99.9014 128.281 100.178 128.773 100.671C129.266 101.163 129.542 101.831 129.542 102.528Z" fill="#15B79E"/>
<path d="M141.972 102.528C141.968 103.048 141.809 103.556 141.515 103.986C141.222 104.415 140.807 104.748 140.324 104.942C139.841 105.136 139.312 105.182 138.802 105.074C138.293 104.967 137.828 104.71 137.464 104.337C137.101 103.964 136.857 103.492 136.763 102.98C136.669 102.468 136.729 101.94 136.935 101.462C137.142 100.985 137.485 100.579 137.923 100.297C138.36 100.015 138.872 99.8693 139.392 99.8784C140.085 99.8905 140.744 100.176 141.228 100.672C141.711 101.168 141.979 101.835 141.972 102.528Z" fill="#15B79E"/>
<path d="M154.368 102.528C154.368 103.047 154.214 103.555 153.925 103.987C153.637 104.419 153.227 104.756 152.747 104.955C152.267 105.153 151.739 105.205 151.229 105.104C150.72 105.003 150.252 104.753 149.884 104.385C149.517 104.018 149.267 103.55 149.165 103.04C149.064 102.531 149.116 102.003 149.315 101.523C149.514 101.043 149.85 100.633 150.282 100.344C150.714 100.055 151.222 99.9014 151.741 99.9014C152.086 99.9014 152.428 99.9694 152.747 100.101C153.065 100.233 153.355 100.427 153.599 100.671C153.843 100.915 154.036 101.204 154.168 101.523C154.3 101.842 154.368 102.183 154.368 102.528Z" fill="#15B79E"/>
<path d="M329.046 246.067C329.046 256.942 325.821 267.573 319.779 276.615C313.737 285.657 305.15 292.705 295.103 296.867C285.055 301.028 274 302.117 263.334 299.996C252.668 297.874 242.87 292.637 235.181 284.947C227.491 277.258 222.254 267.46 220.132 256.794C218.011 246.128 219.1 235.073 223.261 225.025C227.423 214.978 234.471 206.391 243.513 200.349C252.555 194.307 263.186 191.082 274.061 191.082C288.584 191.082 302.518 196.828 312.819 207.065C323.121 217.302 328.954 231.199 329.046 245.722V246.067Z" stroke="#263238" stroke-width="4.11736" stroke-miterlimit="10"/>
<path d="M533.146 122.112H337.444C330.305 122.112 324.518 127.899 324.518 135.037V178.479C324.518 185.618 330.305 191.405 337.444 191.405H533.146C540.284 191.405 546.071 185.618 546.071 178.479V135.037C546.071 127.899 540.284 122.112 533.146 122.112Z" fill="white" stroke="#263238" stroke-width="1.02934" stroke-miterlimit="10"/>
<path d="M363.295 156.453H514.287" stroke="#263238" stroke-width="1.02934" stroke-miterlimit="10"/>
<path d="M358.583 156.453L382.429 139.645H443.163L467.942 156.453" stroke="#263238" stroke-width="1.02934" stroke-miterlimit="10"/>
<path d="M472.643 156.453C472.643 157.385 472.366 158.297 471.848 159.072C471.329 159.847 470.593 160.451 469.731 160.807C468.87 161.164 467.922 161.256 467.007 161.073C466.093 160.891 465.254 160.441 464.595 159.781C463.937 159.121 463.489 158.28 463.308 157.365C463.128 156.451 463.223 155.503 463.581 154.642C463.94 153.781 464.545 153.046 465.322 152.53C466.098 152.014 467.01 151.739 467.942 151.741C469.19 151.744 470.386 152.242 471.267 153.126C472.148 154.009 472.643 155.205 472.643 156.453Z" fill="#15B79E" stroke="#263238" stroke-width="1.02934" stroke-miterlimit="10"/>
<path d="M382.429 144.357C385.032 144.357 387.141 142.248 387.141 139.645C387.141 137.043 385.032 134.934 382.429 134.934C379.827 134.934 377.718 137.043 377.718 139.645C377.718 142.248 379.827 144.357 382.429 144.357Z" fill="#15B79E" stroke="#263238" stroke-width="1.02934" stroke-miterlimit="10"/>
<path d="M447.863 139.645C447.865 140.578 447.591 141.491 447.074 142.267C446.557 143.044 445.821 143.65 444.96 144.008C444.098 144.366 443.15 144.46 442.235 144.279C441.32 144.097 440.479 143.648 439.82 142.989C439.16 142.329 438.711 141.488 438.53 140.573C438.348 139.658 438.443 138.71 438.801 137.849C439.159 136.987 439.764 136.251 440.541 135.735C441.317 135.218 442.23 134.943 443.163 134.945C444.409 134.948 445.602 135.444 446.483 136.325C447.364 137.206 447.86 138.4 447.863 139.645Z" fill="#15B79E" stroke="#263238" stroke-width="1.02934" stroke-miterlimit="10"/>
<path d="M358.583 156.453L382.429 173.261H494.358L514.287 156.453" stroke="#263238" stroke-width="1.02934" stroke-miterlimit="10"/>
<path d="M423.602 173.261C423.602 174.193 423.326 175.104 422.808 175.878C422.29 176.653 421.554 177.257 420.693 177.614C419.832 177.97 418.885 178.064 417.971 177.882C417.057 177.7 416.218 177.251 415.559 176.592C414.9 175.934 414.451 175.094 414.269 174.18C414.087 173.266 414.181 172.319 414.537 171.458C414.894 170.597 415.498 169.861 416.273 169.343C417.047 168.825 417.958 168.549 418.89 168.549C420.14 168.549 421.338 169.046 422.222 169.929C423.106 170.813 423.602 172.011 423.602 173.261Z" fill="#15B79E" stroke="#263238" stroke-width="1.02934" stroke-miterlimit="10"/>
<path d="M387.141 173.261C387.141 174.193 386.865 175.104 386.347 175.878C385.829 176.653 385.093 177.257 384.233 177.614C383.372 177.97 382.424 178.064 381.51 177.882C380.596 177.7 379.757 177.251 379.098 176.592C378.439 175.934 377.99 175.094 377.808 174.18C377.627 173.266 377.72 172.319 378.076 171.458C378.433 170.597 379.037 169.861 379.812 169.343C380.587 168.825 381.498 168.549 382.429 168.549C383.679 168.549 384.877 169.046 385.761 169.929C386.645 170.813 387.141 172.011 387.141 173.261Z" fill="#15B79E" stroke="#263238" stroke-width="1.02934" stroke-miterlimit="10"/>
<path d="M499.069 173.261C499.069 174.193 498.793 175.104 498.275 175.878C497.758 176.653 497.022 177.257 496.161 177.614C495.3 177.97 494.353 178.064 493.439 177.882C492.525 177.7 491.685 177.251 491.026 176.592C490.367 175.934 489.918 175.094 489.737 174.18C489.555 173.266 489.648 172.319 490.005 171.458C490.361 170.597 490.965 169.861 491.74 169.343C492.515 168.825 493.426 168.549 494.358 168.549C495.607 168.549 496.806 169.046 497.689 169.929C498.573 170.813 499.069 172.011 499.069 173.261Z" fill="#15B79E" stroke="#263238" stroke-width="1.02934" stroke-miterlimit="10"/>
<path d="M514.287 161.165C516.89 161.165 518.999 159.055 518.999 156.453C518.999 153.851 516.89 151.741 514.287 151.741C511.685 151.741 509.576 153.851 509.576 156.453C509.576 159.055 511.685 161.165 514.287 161.165Z" fill="#15B79E" stroke="#263238" stroke-width="1.02934" stroke-miterlimit="10"/>
<path d="M363.295 156.453C363.295 157.385 363.018 158.297 362.5 159.072C361.982 159.847 361.245 160.451 360.383 160.807C359.522 161.164 358.574 161.256 357.66 161.073C356.745 160.891 355.906 160.441 355.247 159.781C354.589 159.121 354.141 158.28 353.96 157.365C353.78 156.451 353.875 155.503 354.233 154.642C354.592 153.781 355.197 153.046 355.974 152.53C356.75 152.014 357.662 151.739 358.595 151.741C359.842 151.744 361.038 152.242 361.919 153.126C362.8 154.009 363.295 155.205 363.295 156.453Z" fill="#15B79E" stroke="#263238" stroke-width="1.02934" stroke-miterlimit="10"/>
<path d="M221.265 268.07H108.518C101.38 268.07 95.593 273.857 95.593 280.996V393.742C95.593 400.881 101.38 406.668 108.518 406.668H221.265C228.403 406.668 234.19 400.881 234.19 393.742V280.996C234.19 273.857 228.403 268.07 221.265 268.07Z" fill="white" stroke="#263238" stroke-width="1.02934" stroke-miterlimit="10"/>
<path d="M147.56 347.201L129.612 382.095H210.966" stroke="#263238" stroke-width="1.02934" stroke-linecap="round" stroke-linejoin="round"/>
<path d="M210.966 294.486L172.996 319.726L210.966 331.154" stroke="#263238" stroke-width="1.02934" stroke-linecap="round" stroke-linejoin="round"/>
<path d="M219.94 285.512H201.992V303.46H219.94V285.512Z" fill="#15B79E" stroke="#263238" stroke-width="1.02934" stroke-miterlimit="10"/>
<path d="M219.94 322.18H201.992V340.128H219.94V322.18Z" fill="#15B79E" stroke="#263238" stroke-width="1.02934" stroke-miterlimit="10"/>
<path d="M181.97 310.752H164.022V328.7H181.97V310.752Z" fill="#15B79E" stroke="#263238" stroke-width="1.02934" stroke-miterlimit="10"/>
<path d="M156.534 338.227H138.586V356.175H156.534V338.227Z" fill="#15B79E" stroke="#263238" stroke-width="1.02934" stroke-miterlimit="10"/>
<path d="M138.586 373.11H120.637V391.058H138.586V373.11Z" fill="#15B79E" stroke="#263238" stroke-width="1.02934" stroke-miterlimit="10"/>
<path d="M219.94 373.11H201.992V391.058H219.94V373.11Z" fill="#15B79E" stroke="#263238" stroke-width="1.02934" stroke-miterlimit="10"/>
<path d="M155.543 213.754H42.7968C35.6583 213.754 29.8713 219.541 29.8713 226.679V339.425C29.8713 346.564 35.6583 352.351 42.7968 352.351H155.543C162.682 352.351 168.468 346.564 168.468 339.425V226.679C168.468 219.541 162.682 213.754 155.543 213.754Z" fill="white" stroke="#263238" stroke-width="1.02934" stroke-miterlimit="10"/>
<path d="M136.731 227.163H44.5363V234.305H136.731V227.163Z" fill="#15B79E"/>
<path d="M97.8048 238.925H44.5363V246.067H97.8048V238.925Z" fill="#15B79E"/>
<path d="M75.5597 250.687H44.5363V257.829H75.5597V250.687Z" fill="#15B79E"/>
<path d="M95.593 262.437H44.5363V269.58H95.593V262.437Z" fill="#15B79E"/>
<path d="M124.128 274.199H44.5363V281.341H124.128V274.199Z" fill="#15B79E"/>
<path d="M97.8048 285.949H44.5363V293.092H97.8048V285.949Z" fill="#15B79E"/>
<path d="M81.6998 297.711H44.5363V304.854H81.6998V297.711Z" fill="#15B79E"/>
<path d="M104.705 309.473H44.5363V316.616H104.705V309.473Z" fill="#15B79E"/>
<path d="M117.481 321.224H44.5363V328.366H117.481V321.224Z" fill="#15B79E"/>
<path d="M136.731 332.986H44.5363V340.128H136.731V332.986Z" fill="#15B79E"/>
<path opacity="0.3" d="M136.731 227.163H44.5363V234.305H136.731V227.163Z" fill="black"/>
<path opacity="0.3" d="M97.8048 238.925H44.5363V246.067H97.8048V238.925Z" fill="black"/>
<path opacity="0.3" d="M75.5597 250.687H44.5363V257.829H75.5597V250.687Z" fill="black"/>
<path opacity="0.3" d="M95.593 262.437H44.5363V269.58H95.593V262.437Z" fill="black"/>
<path opacity="0.3" d="M124.128 274.199H44.5363V281.341H124.128V274.199Z" fill="black"/>
<path opacity="0.3" d="M97.8048 285.949H44.5363V293.092H97.8048V285.949Z" fill="black"/>
<path opacity="0.3" d="M81.6998 297.711H44.5363V304.854H81.6998V297.711Z" fill="black"/>
<path opacity="0.3" d="M104.705 309.473H44.5363V316.616H104.705V309.473Z" fill="black"/>
<path opacity="0.3" d="M117.481 321.224H44.5363V328.366H117.481V321.224Z" fill="black"/>
<path opacity="0.3" d="M136.731 332.986H44.5363V340.128H136.731V332.986Z" fill="black"/>
<path d="M103.899 201.6H137.445C139.064 201.6 140.617 202.243 141.762 203.388C142.907 204.533 143.551 206.086 143.551 207.706V213.777H97.7933V207.706C97.7933 206.086 98.4365 204.533 99.5816 203.388C100.727 202.243 102.28 201.6 103.899 201.6Z" fill="white" stroke="#263238" stroke-width="1.02934" stroke-miterlimit="10"/>
<path d="M81.216 201.6H114.371C116.045 201.6 117.651 202.265 118.835 203.449C120.018 204.633 120.684 206.239 120.684 207.913V213.788H74.88V207.913C74.88 207.082 75.044 206.259 75.3627 205.492C75.6814 204.724 76.1485 204.027 76.7372 203.441C77.3258 202.854 78.0245 202.39 78.7931 202.074C79.5616 201.758 80.385 201.597 81.216 201.6Z" fill="#15B79E" stroke="#263238" stroke-width="1.02934" stroke-miterlimit="10"/>
<path d="M55.7222 201.6H89.6832C91.2486 201.594 92.7524 202.209 93.8647 203.311C94.977 204.412 95.6068 205.91 95.616 207.475V213.754H49.824V207.475C49.8331 205.916 50.4582 204.423 51.563 203.323C52.6678 202.222 54.1628 201.603 55.7222 201.6Z" fill="white" stroke="#263238" stroke-width="1.02934" stroke-miterlimit="10"/>
<path d="M487.503 455.662H512.698" stroke="#263238" stroke-width="1.02934" stroke-linecap="round" stroke-linejoin="round"/>
<path d="M90.6278 455.662H474.244" stroke="#263238" stroke-width="1.02934" stroke-linecap="round" stroke-linejoin="round"/>
<path d="M480.591 440.905C480.591 440.905 485.05 437.253 487.181 441.239C489.012 444.695 484.623 448.554 479.612 448.554V451.469C479.612 451.469 490.349 451.757 491.132 442.714C491.915 433.67 480.545 436.17 480.545 436.17L480.591 440.905Z" fill="#15B79E" stroke="#263238" stroke-width="1.02934" stroke-linecap="round" stroke-linejoin="round"/>
<path d="M480.223 455.604H458.726L455.501 428.613H483.448L480.223 455.604Z" fill="#15B79E" stroke="#263238" stroke-width="1.02934" stroke-linecap="round" stroke-linejoin="round"/>
<path d="M483.402 427.323H455.547C454.732 427.323 454.072 427.983 454.072 428.797V428.936C454.072 429.75 454.732 430.41 455.547 430.41H483.402C484.217 430.41 484.877 429.75 484.877 428.936V428.797C484.877 427.983 484.217 427.323 483.402 427.323Z" fill="white" stroke="#263238" stroke-width="1.02934" stroke-linecap="round" stroke-linejoin="round"/>
<path d="M465.823 424.385C465.823 424.385 475.707 418.452 472.481 411.644C469.256 404.836 458.346 400.355 458.346 389.756C458.346 380.632 468.046 377.257 474.382 373.628" stroke="#263238" stroke-width="1.02934" stroke-linecap="round" stroke-linejoin="round"/>
<path d="M469.071 380.068C467.781 380.941 466.676 382.061 465.82 383.363C464.964 384.665 464.373 386.123 464.082 387.654C463.791 389.184 463.805 390.757 464.123 392.283C464.442 393.808 465.059 395.255 465.938 396.541" stroke="#263238" stroke-width="1.02934" stroke-linecap="round" stroke-linejoin="round"/>
<path d="M474.451 406.967C476.432 410.769 476.98 415.156 475.995 419.328" stroke="#263238" stroke-width="1.02934" stroke-linecap="round" stroke-linejoin="round"/>
<path d="M209.664 453.427C209.664 453.427 209.215 445.686 202.383 442.956C195.552 440.225 191.9 441.354 176.659 445.455C167.048 447.97 157.205 449.494 147.283 450.006V453.462L209.664 453.427Z" fill="white" stroke="#263238" stroke-width="1.02934" stroke-linecap="round" stroke-linejoin="round"/>
<path d="M209.445 453.427C209.445 453.427 209.894 445.686 216.726 442.956C223.557 440.225 227.197 441.354 242.45 445.455C252.076 447.974 261.935 449.499 271.872 450.006V453.462L209.445 453.427Z" fill="white" stroke="#263238" stroke-width="1.02934" stroke-linecap="round" stroke-linejoin="round"/>
<path d="M274.349 452.056H145.716V454.556H274.349V452.056Z" fill="#263238" stroke="#263238" stroke-width="1.02934" stroke-linecap="round" stroke-linejoin="round"/>
<path d="M212.763 453.289C213.375 451.463 214.366 449.786 215.67 448.369C216.974 446.952 218.563 445.825 220.332 445.064" stroke="#263238" stroke-width="1.02934" stroke-linecap="round" stroke-linejoin="round"/>
<path d="M216.657 452.736C217.566 451.169 218.8 449.816 220.277 448.766C221.753 447.717 223.437 446.997 225.216 446.653C229.467 445.87 233.798 447.333 237.807 448.957C241.816 450.582 248.832 452.736 253.117 452.736" stroke="#263238" stroke-width="1.02934" stroke-linecap="round" stroke-linejoin="round"/>
<path d="M172.109 452.033C176.368 451.573 180.543 450.527 184.516 448.923C186.909 447.8 189.381 446.852 191.912 446.089C194.472 445.334 197.225 445.611 199.584 446.861C200.598 447.52 201.491 448.351 202.222 449.315C203.238 450.599 204.079 452.013 204.722 453.519" stroke="#263238" stroke-width="1.02934" stroke-linecap="round" stroke-linejoin="round"/>
<path d="M195.633 448.554C197.035 448.736 198.33 449.4 199.296 450.432C200.231 451.466 201.046 452.602 201.727 453.819" stroke="#263238" stroke-width="1.02934" stroke-linecap="round" stroke-linejoin="round"/>
<path d="M307.123 452.183C302.418 454.34 297.322 455.516 292.147 455.639C284.175 455.639 267.955 439.165 267.955 439.165C267.955 439.165 267.368 437.391 268.635 430.756C269.902 424.12 281.814 363.237 281.814 363.237C281.814 363.237 283.219 349.067 291.272 340.37C299.324 331.672 315.13 328.573 315.13 328.573C315.13 328.573 350.081 313.356 369.688 318.056C389.272 325.832 410.665 333.734 417.807 339.863C424.95 345.992 442.506 395.159 448.589 420.411C448.589 420.411 435.191 448.877 422.692 456.872C410.193 464.867 380.068 462.263 380.068 462.263L307.123 452.183Z" fill="#15B79E"/>
<path opacity="0.3" d="M302.688 402.705L297.631 335.601C294.32 336.942 291.386 339.067 289.08 341.795C286.774 344.522 285.166 347.769 284.394 351.256C281.779 363.26 265.962 437.138 267.921 439.188C269.879 441.239 280.189 450.075 280.189 450.075C280.189 450.075 291.306 459.579 302.688 453.9C314.07 448.22 302.688 402.705 302.688 402.705Z" fill="black"/>
<path opacity="0.3" d="M352.869 341.821C352.282 343.826 349.759 344.471 347.662 344.494C341.637 344.559 335.794 342.43 331.223 338.504C330.394 337.778 315.567 346.936 313.862 347.846C311.167 349.298 308.529 350.888 305.798 352.236C303.241 353.491 300.822 354.113 299.151 356.648C298.044 358.516 297.21 360.533 296.675 362.638C293.08 374.412 289.29 386.15 286.019 398.004C283.185 408.269 279.372 419.628 279.533 430.399C279.535 431.169 279.588 431.939 279.694 432.703C281.998 446.469 307.135 452.183 307.135 452.183C307.135 452.183 298.241 457.632 292.159 455.639C286.076 453.646 271.86 445.513 267.379 437.91L279.717 373.398C279.717 373.398 279.567 342.294 301.985 333.078C324.403 323.862 333.204 322.445 333.204 322.445L352.869 341.821Z" fill="black"/>
<path opacity="0.3" d="M435.594 443.301C435.594 443.301 445.386 432.484 448.554 420.434C448.554 420.434 433.578 370.967 429.684 361.682C425.791 352.397 419.489 341.856 415.077 337.34L407.912 439.154L406.403 460.581C406.403 460.581 414.467 460.915 420.054 458.277C425.641 455.639 435.594 443.301 435.594 443.301Z" fill="black"/>
<path d="M406.403 460.616L415.077 337.352C415.077 337.352 373.075 317.768 362.085 315.901C351.095 314.035 297.723 335.071 297.723 335.071L305.487 453.289" stroke="#263238" stroke-width="1.02934" stroke-linecap="round" stroke-linejoin="round"/>
<path d="M330.693 255.744L326.385 276.422C326.385 276.422 320.855 272.517 319.68 276.929C318.505 281.341 322.099 287.412 329.046 287.747C329.046 287.747 330.935 297.112 337.11 303.471C340.017 306.573 343.093 309.512 346.326 312.273C346.326 312.273 348.756 327.974 356.694 328.573C364.631 329.172 366.175 322.03 367.776 312.1C367.776 312.1 374.63 300.211 376.635 293.783C376.635 293.783 385.044 287.919 379.434 279.36C379.434 279.36 382.211 258.889 377.384 255.433C372.557 251.977 339.114 253.74 330.693 255.744Z" fill="white"/>
<path d="M356.302 330.209C356.302 330.209 353.641 343.619 351.982 343.953C350.323 344.287 343.757 338.02 338.02 330.209C332.283 322.399 333.17 322.387 333.17 322.387C333.17 322.387 335.831 312.134 338.02 310.637C340.209 309.139 348.1 309.324 348.1 309.324L365.38 308.667C365.38 308.667 371.14 307.849 374.7 310.141C378.259 312.434 379.987 322.387 379.987 322.387C379.987 322.387 369.619 341.499 361.164 343.953C359.279 339.469 357.655 334.881 356.302 330.209Z" fill="white"/>
<path d="M299.658 430.894L301.951 398.73" stroke="#263238" stroke-width="1.02934" stroke-miterlimit="10"/>
<path d="M379.987 261.665C379.987 261.665 370.172 265.467 361.498 264.741C361.498 264.741 352.339 273.957 340.612 268.485C340.612 268.485 330.037 297.124 354.286 315.855C348.152 313.502 342.665 309.726 338.277 304.837C333.889 299.948 330.725 294.086 329.046 287.735C329.046 287.735 322.134 288.806 319.68 278.519C319.68 278.519 317.687 274.545 326.776 274.522L326.385 254.592L349.736 259.281L366.497 256.827L379.987 261.665Z" fill="#15B79E"/>
<path opacity="0.4" d="M379.987 261.665C379.987 261.665 370.172 265.467 361.498 264.741C361.498 264.741 352.339 273.957 340.612 268.485C340.612 268.485 332.064 299.151 353.284 315.337C353.284 315.337 334.034 308.667 329.034 287.689C329.034 287.689 322.191 286.963 319.668 278.473C319.668 278.473 317.676 274.499 326.765 274.476L326.373 254.546L349.724 259.235L366.486 256.781L379.987 261.665Z" fill="white"/>
<path d="M353.295 301.363C354.056 301.978 354.852 302.547 355.68 303.068C356.221 303.414 357.039 303.69 357.42 303.183C357.55 302.976 357.617 302.737 357.615 302.492C357.961 296.836 356.636 291.122 357.443 285.512" stroke="#263238" stroke-width="1.02934" stroke-linecap="round" stroke-linejoin="round"/>
<path d="M361.164 282.298C361.164 282.298 363.974 276.1 371.22 281.664" stroke="#263238" stroke-width="2.05868" stroke-linecap="round" stroke-linejoin="round"/>
<path d="M352.051 283.392C352.051 283.392 346.752 276.803 340.186 283.599" stroke="#263238" stroke-width="2.05868" stroke-linecap="round" stroke-linejoin="round"/>
<path d="M344.897 311.282C344.897 311.282 347.72 328.182 357.673 328.7C365.737 329.115 367.327 315.141 367.638 310.141" stroke="#263238" stroke-width="1.02934" stroke-linecap="round" stroke-linejoin="round"/>
<path d="M327.744 278.3C327.744 278.3 323.355 273.059 320.383 275.616C317.411 278.173 321.869 289.44 329.046 287.735" stroke="#263238" stroke-width="1.02934" stroke-linecap="round" stroke-linejoin="round"/>
<path d="M346.752 303.46C348.918 306.071 351.88 307.9 355.185 308.667" stroke="#263238" stroke-width="1.02934" stroke-linecap="round" stroke-linejoin="round"/>
<path d="M346.268 293.656C346.898 293.656 347.409 292.573 347.409 291.237C347.409 289.901 346.898 288.818 346.268 288.818C345.638 288.818 345.128 289.901 345.128 291.237C345.128 292.573 345.638 293.656 346.268 293.656Z" fill="#263238"/>
<path d="M365.898 291.237C365.898 292.573 365.38 293.656 364.746 293.656C364.113 293.656 363.594 292.573 363.594 291.237C363.594 289.901 364.101 288.806 364.746 288.806C365.391 288.806 365.898 289.901 365.898 291.237Z" fill="#263238"/>
<path d="M356.625 328.562C356.625 328.562 353.86 343.619 352.017 343.953C350.173 344.287 335.992 331.43 333.204 322.387C333.204 322.387 336.2 310.568 338.964 310.141C340.266 309.934 341.764 309.738 342.95 309.588" stroke="#263238" stroke-width="1.02934" stroke-linecap="round" stroke-linejoin="round"/>
<path d="M356.625 328.562C356.625 328.562 359.297 343.619 361.164 343.953C363.03 344.287 377.199 331.43 379.987 322.387C379.987 322.387 376.6 310.648 374.031 309.658C372.392 309.043 370.704 308.565 368.986 308.229" stroke="#263238" stroke-width="1.02934" stroke-linecap="round" stroke-linejoin="round"/>
<path d="M330.405 291.525C332.225 294.682 334.483 283.565 333.527 280.005C332.882 277.701 331.626 275.466 331.511 273.093C331.396 270.397 332.663 267.875 333.654 265.352C334.644 262.829 335.163 259.822 333.654 257.564C338.885 261.264 345.027 263.467 351.418 263.935C353.047 264.164 354.707 264.03 356.279 263.543C357.058 263.287 357.757 262.834 358.31 262.229C358.863 261.624 359.251 260.886 359.436 260.087C365.426 260.847 371.359 261.631 377.326 260.813C382.337 260.133 390.125 258.866 392.694 253.751C396.461 246.286 386.761 238.533 381.036 235.918C367.212 229.594 348.526 228.522 336.038 238.453C334.757 239.563 333.415 240.602 332.018 241.563C329.265 243.291 322.998 244.627 320.797 247.035C317.848 250.272 321.546 275.27 321.546 275.27C321.546 275.27 326.362 273.036 328.343 280.489C329.725 285.512 328.562 288.346 330.405 291.525Z" fill="#263238"/>
<path d="M375.702 259.2C375.621 259.51 375.567 259.826 375.54 260.145C375.412 262.98 375.75 265.817 376.543 268.543C376.854 269.764 377.303 270.95 377.499 272.195C377.96 275.155 377.96 278.012 380.148 280.42C380.148 280.42 384.342 265.755 382.648 255.272C382.453 254.12 382.072 251.009 380.218 251.574C378.858 251.988 377.914 254.316 377.315 255.444C376.646 256.636 376.106 257.895 375.702 259.2Z" fill="#263238"/>
<path d="M317.825 245.376C319.68 244.089 321.813 243.26 324.051 242.96C326.288 242.66 328.565 242.895 330.693 243.648C334.04 237.686 338.701 232.565 344.321 228.672" stroke="#263238" stroke-width="1.02934" stroke-linecap="round" stroke-linejoin="round"/>
<path opacity="0.47" d="M335.843 241.851C335.843 241.851 358.422 257.91 372.096 253.935C385.77 249.961 381.946 238.199 381.946 238.199" stroke="white" stroke-width="1.02934" stroke-linecap="round" stroke-linejoin="round"/>
<path opacity="0.47" d="M338.02 239.155C338.02 239.155 366.371 252.184 371.14 233.741" stroke="white" stroke-width="1.02934" stroke-linecap="round" stroke-linejoin="round"/>
<path d="M344.897 311.282C344.897 311.282 350.289 321.754 354.516 321.581C358.744 321.408 366.497 310.141 366.497 310.141C366.497 310.141 362.316 315.533 355.968 316.086C351.786 316.454 344.897 311.282 344.897 311.282Z" fill="#263238"/>
<path d="M377.522 387.74L378.397 387.337C378.888 387.12 379.29 386.743 379.539 386.269C379.788 385.794 379.869 385.249 379.768 384.722L379.596 383.662C379.511 383.134 379.249 382.651 378.853 382.291C378.458 381.931 377.952 381.716 377.418 381.681L376.358 381.588C375.94 381.559 375.537 381.419 375.191 381.182C374.844 380.945 374.568 380.62 374.388 380.241C374.1 379.642 373.801 379.089 373.467 378.49C373.257 378.129 373.147 377.72 373.147 377.303C373.147 376.886 373.257 376.477 373.467 376.116L374.008 375.195C374.274 374.731 374.38 374.193 374.312 373.662C374.243 373.132 374.003 372.639 373.628 372.257L372.868 371.508C372.498 371.114 372.001 370.861 371.464 370.796C370.927 370.731 370.384 370.856 369.93 371.151L368.997 371.704C368.637 371.914 368.227 372.024 367.811 372.024C367.394 372.024 366.984 371.914 366.624 371.704C365.112 370.831 363.488 370.168 361.797 369.734C361.384 369.627 361.007 369.409 360.707 369.105C360.407 368.801 360.194 368.421 360.092 368.006L359.816 366.854C359.701 366.318 359.4 365.841 358.965 365.507C358.53 365.173 357.99 365.006 357.443 365.034H356.383C355.837 365.005 355.299 365.171 354.864 365.503C354.429 365.834 354.126 366.309 354.01 366.843L353.71 367.995C353.614 368.405 353.407 368.78 353.113 369.081C352.818 369.381 352.447 369.595 352.04 369.7C351.441 369.873 350.888 370.045 350.289 370.264C349.891 370.407 349.464 370.441 349.049 370.365C348.634 370.288 348.247 370.102 347.927 369.827L346.971 369.009C346.58 368.648 346.076 368.433 345.544 368.402C345.013 368.37 344.487 368.524 344.056 368.836L343.215 369.412C342.752 369.705 342.408 370.153 342.245 370.677C342.083 371.2 342.112 371.765 342.328 372.269L342.755 373.421C342.909 373.814 342.956 374.24 342.891 374.657C342.826 375.074 342.652 375.466 342.386 375.794C342.003 376.246 341.646 376.719 341.315 377.211C341.074 377.563 340.742 377.843 340.354 378.021C339.967 378.2 339.538 378.27 339.114 378.225L337.962 378.121C337.427 378.049 336.883 378.168 336.426 378.456C335.969 378.745 335.628 379.185 335.462 379.699L335.082 380.736C334.898 381.229 334.883 381.769 335.039 382.272C335.196 382.775 335.515 383.211 335.946 383.512L337.098 384.284C337.439 384.529 337.709 384.859 337.883 385.241C338.057 385.623 338.128 386.044 338.089 386.461C338.018 387.077 337.987 387.697 337.997 388.316C337.986 388.721 337.875 389.117 337.674 389.469C337.473 389.821 337.188 390.117 336.845 390.332L335.693 390.954C335.219 391.211 334.848 391.621 334.638 392.117C334.429 392.614 334.395 393.166 334.541 393.684L334.817 394.721C334.951 395.243 335.259 395.704 335.691 396.027C336.123 396.35 336.652 396.515 337.19 396.495H338.342C338.758 396.491 339.168 396.595 339.532 396.797C339.895 396.999 340.2 397.292 340.416 397.647C340.739 398.223 341.073 398.799 341.441 399.295C341.678 399.639 341.82 400.04 341.852 400.457C341.885 400.873 341.807 401.291 341.626 401.668L341.142 402.682C340.903 403.163 340.834 403.711 340.947 404.236C341.06 404.761 341.348 405.233 341.764 405.573L342.582 406.264C342.989 406.612 343.503 406.811 344.038 406.83C344.574 406.849 345.1 406.686 345.531 406.368L346.383 405.769C346.714 405.533 347.101 405.388 347.506 405.349C347.911 405.311 348.318 405.38 348.687 405.55C349.298 405.838 349.908 406.092 350.542 406.333C350.931 406.477 351.276 406.722 351.541 407.041C351.806 407.361 351.982 407.744 352.051 408.154L352.224 409.19C352.313 409.719 352.578 410.201 352.975 410.561C353.372 410.92 353.878 411.135 354.413 411.172L355.496 411.264C356.027 411.315 356.56 411.185 357.008 410.894C357.456 410.603 357.792 410.169 357.961 409.663L358.295 408.741C358.436 408.341 358.682 407.987 359.006 407.713C359.33 407.44 359.72 407.258 360.138 407.186C360.809 407.078 361.475 406.936 362.131 406.76C362.536 406.652 362.962 406.653 363.367 406.762C363.771 406.871 364.14 407.085 364.435 407.382L365.138 408.096C365.508 408.477 365.995 408.722 366.522 408.793C367.048 408.864 367.583 408.757 368.041 408.488L368.986 407.958C369.461 407.7 369.835 407.288 370.044 406.79C370.254 406.291 370.287 405.736 370.138 405.216L369.873 404.294C369.749 403.882 369.739 403.443 369.844 403.025C369.95 402.607 370.167 402.226 370.472 401.921C370.967 401.436 371.436 400.924 371.877 400.389C372.152 400.059 372.512 399.809 372.917 399.667C373.323 399.525 373.76 399.496 374.181 399.583L375.137 399.767C375.663 399.868 376.207 399.789 376.681 399.543C377.156 399.296 377.533 398.896 377.752 398.408L378.202 397.44C378.438 396.954 378.5 396.402 378.378 395.876C378.257 395.35 377.959 394.881 377.533 394.548L376.819 393.961C376.488 393.708 376.231 393.369 376.077 392.982C375.923 392.594 375.877 392.172 375.944 391.761C376.056 391.055 376.13 390.343 376.163 389.629C376.208 389.224 376.357 388.838 376.595 388.507C376.833 388.176 377.152 387.912 377.522 387.74ZM363.249 388.351C363.251 389.591 362.885 390.803 362.198 391.836C361.511 392.868 360.533 393.673 359.388 394.149C358.243 394.625 356.983 394.751 355.766 394.51C354.55 394.27 353.432 393.674 352.554 392.798C351.677 391.922 351.079 390.805 350.836 389.589C350.593 388.373 350.717 387.113 351.191 385.967C351.665 384.821 352.468 383.841 353.499 383.152C354.53 382.463 355.742 382.095 356.982 382.095C358.636 382.092 360.223 382.746 361.396 383.912C362.569 385.078 363.231 386.662 363.237 388.316L363.249 388.351Z" fill="#263238"/>
<path d="M299.9 426.563C298.96 427.599 297.931 428.551 296.824 429.408C293.825 432.313 291.576 435.902 290.269 439.868C289.624 441.702 289.624 443.702 290.269 445.536C291.663 448.992 296.087 452.448 299.624 450.236" stroke="#263238" stroke-width="1.02934" stroke-linecap="round" stroke-linejoin="round"/>
<path d="M299.624 420.48C296.248 419.95 292.931 421.908 290.627 424.408C288.323 426.908 286.721 429.996 284.625 432.68" stroke="#263238" stroke-width="1.02934" stroke-linecap="round" stroke-linejoin="round"/>
<path d="M299.359 455.121C294.866 455.994 290.214 455.497 286.007 453.692C283.342 452.259 280.859 450.511 278.611 448.485L269.856 441.251C268.451 440.099 266.895 438.428 267.471 436.7C267.471 436.7 282.102 359.597 284.394 351.256C287.055 341.637 297.769 335.128 297.769 335.128" stroke="#263238" stroke-width="1.02934" stroke-linecap="round" stroke-linejoin="round"/>
<path d="M409.133 427.392C412.9 430.225 415.782 434.073 417.439 438.486C418.749 442.58 419.626 446.8 420.054 451.077C417.75 452.344 413.142 455.685 409.133 455.685" stroke="#263238" stroke-width="1.02934" stroke-linecap="round" stroke-linejoin="round"/>
<path d="M409.628 420.975C413.176 420.031 416.69 422.45 419.374 424.961C422.058 427.473 424.812 430.387 428.463 430.779" stroke="#263238" stroke-width="1.02934" stroke-linecap="round" stroke-linejoin="round"/>
<path d="M410.308 461.042C417.22 460.316 423.441 456.549 428.417 451.745C433.394 446.941 437.219 441.112 441.009 435.341C444.084 430.664 447.206 425.86 448.554 420.434C448.554 420.434 436.424 380.333 429.684 361.682C422.657 342.294 415.077 337.34 415.077 337.34" stroke="#263238" stroke-width="1.02934" stroke-linecap="round" stroke-linejoin="round"/>
<path d="M409.628 420.975C415.884 415.722 425.48 419.973 432.207 423.498" stroke="#263238" stroke-width="1.02934" stroke-linecap="round" stroke-linejoin="round"/>
<path d="M409.121 399.514H299.9V462.286H409.121V399.514Z" fill="white"/>
<path d="M409.628 462.286H299.359V465.569H409.628V462.286Z" fill="#263238"/>
<path d="M299.359 462.286L409.133 399.514L409.628 462.286H299.359Z" fill="#263238"/>
<path opacity="0.9" d="M299.359 462.286L409.133 399.514L409.628 462.286H299.359Z" fill="white"/>
<path d="M362.566 436.455C366.201 432.82 366.201 426.926 362.566 423.291C358.931 419.656 353.037 419.656 349.402 423.291C345.767 426.926 345.767 432.82 349.402 436.455C353.037 440.09 358.931 440.09 362.566 436.455Z" fill="#263238"/>
<path d="M409.121 399.514H299.9V462.286H409.121V399.514Z" stroke="#263238" stroke-width="1.02934" stroke-linecap="round" stroke-linejoin="round"/>
<path d="M327.237 271.941C327.237 271.941 329.633 293.829 332.675 297.78C335.716 301.732 345.485 316.028 356.129 315.809C366.774 315.59 373.72 301.905 375.46 296.041C377.625 288.615 378.935 280.966 379.365 273.243" stroke="#263238" stroke-width="1.02934" stroke-linecap="round" stroke-linejoin="round"/>
<path d="M376.566 293.76C376.566 293.76 384.457 289.682 379.365 279.337" stroke="#263238" stroke-width="1.02934" stroke-linecap="round" stroke-linejoin="round"/>
</svg>