<svg width="576" height="576" viewBox="0 0 576 576" fill="none" xmlns="http://www.w3.org/2000/svg">
<path opacity="0.7" d="M78.2554 192.488C78.2554 192.488 46.1376 275.432 91.273 358.952C136.408 442.472 229.375 486.593 303.782 524.321C378.19 562.049 455.455 543.675 492.169 481.882C528.883 420.088 478.529 375.978 478.46 287.862C478.391 199.745 491.651 176.417 443.9 101.975C396.15 27.5328 279.095 11.0477 190.575 66.2631C102.056 121.478 78.2554 192.488 78.2554 192.488Z" fill="white"/>
<path d="M79.488 497.272H322.779C323.758 495.706 324.749 494.139 325.763 492.607C351.936 452.77 393.846 424.362 439.615 411.034C460.12 405.066 482.331 401.518 498.805 387.924C515.762 373.951 523.549 351.648 526.913 329.933C531.003 303.644 528.791 274.164 510.947 254.431C489.992 231.264 454.879 228.66 427.576 213.477C380.586 187.327 362.373 127.78 319.622 95.1552C292.608 74.5459 256.159 66.5625 223.488 71.0784C177.189 77.495 133.632 108.518 120.557 154.022C116.798 167.276 115.456 181.097 116.594 194.826C118.679 221.956 124.52 249.431 119.013 276.077C112.942 305.441 93.8419 330.221 82.4256 357.972C68.2099 392.532 66.2976 431.24 72.3226 468.081C73.9352 477.985 76.3312 487.747 79.488 497.272Z" fill="#15B79E"/>
<path opacity="0.7" d="M79.488 497.272H322.779C323.758 495.706 324.749 494.139 325.763 492.607C351.936 452.77 393.846 424.362 439.615 411.034C460.12 405.066 482.331 401.518 498.805 387.924C515.762 373.951 523.549 351.648 526.913 329.933C531.003 303.644 528.791 274.164 510.947 254.431C489.992 231.264 454.879 228.66 427.576 213.477C380.586 187.327 362.373 127.78 319.622 95.1552C292.608 74.5459 256.159 66.5625 223.488 71.0784C177.189 77.495 133.632 108.518 120.557 154.022C116.798 167.276 115.456 181.097 116.594 194.826C118.679 221.956 124.52 249.431 119.013 276.077C112.942 305.441 93.8419 330.221 82.4256 357.972C68.2099 392.532 66.2976 431.24 72.3226 468.081C73.9352 477.985 76.3312 487.747 79.488 497.272Z" fill="white"/>
<path d="M48.3725 497.272H530.277" stroke="#263238" stroke-linecap="round" stroke-linejoin="round"/>
<path d="M321.408 130.625V112.539L307.86 111.387C307.069 108.558 305.947 105.832 304.52 103.265L313.263 92.8972L300.476 80.11L290.108 88.8537C287.562 87.4207 284.855 86.2954 282.044 85.5014L280.892 71.9539H262.656L261.504 85.5014C258.693 86.2954 255.986 87.4207 253.44 88.8537L243.072 80.11L230.285 92.8972L239.028 103.265C237.601 105.832 236.48 108.558 235.688 111.387L222.14 112.539V130.625L235.688 131.777C236.484 134.586 237.605 137.292 239.028 139.841L230.285 150.209L243.072 162.996L253.44 154.253C255.986 155.686 258.693 156.811 261.504 157.605L262.656 171.153H280.742L281.894 157.605C284.724 156.812 287.451 155.687 290.016 154.253L300.384 162.996L313.171 150.209L304.428 139.841C305.851 137.292 306.972 134.586 307.768 131.777L321.408 130.625ZM271.757 142.595C267.601 142.595 263.538 141.362 260.083 139.053C256.627 136.744 253.934 133.463 252.344 129.623C250.753 125.784 250.337 121.559 251.148 117.483C251.959 113.407 253.96 109.663 256.899 106.724C259.837 103.785 263.581 101.784 267.657 100.973C271.733 100.163 275.958 100.579 279.798 102.169C283.637 103.759 286.919 106.453 289.228 109.908C291.537 113.364 292.769 117.426 292.769 121.582C292.768 124.345 292.222 127.08 291.162 129.632C290.103 132.184 288.551 134.502 286.595 136.453C284.639 138.405 282.318 139.951 279.764 141.005C277.21 142.059 274.474 142.599 271.711 142.595H271.757Z" stroke="#263238" stroke-linecap="round" stroke-linejoin="round"/>
<path d="M515.739 307.4V298.737L509.242 298.172C508.859 296.817 508.322 295.51 507.64 294.278L511.834 289.29L505.728 283.162L500.751 287.355C499.522 286.668 498.214 286.131 496.858 285.754L496.293 279.256H487.619L487.066 285.754C485.708 286.129 484.401 286.666 483.172 287.355L478.184 283.162L472.055 289.29L476.248 294.278C475.558 295.508 475.017 296.815 474.636 298.172L468.138 298.737V307.4L474.636 307.964C475.017 309.321 475.558 310.628 476.248 311.858L472.02 316.8L478.149 322.929L483.137 318.735C484.366 319.424 485.673 319.961 487.031 320.337L487.584 326.834H496.259L496.823 320.337C498.18 319.959 499.487 319.422 500.717 318.735L505.693 322.929L511.834 316.8L507.64 311.812C508.322 310.58 508.859 309.273 509.242 307.918L515.739 307.4ZM491.927 313.16C489.933 313.162 487.983 312.573 486.324 311.466C484.665 310.36 483.371 308.787 482.606 306.945C481.841 305.103 481.64 303.076 482.028 301.12C482.415 299.164 483.375 297.367 484.784 295.956C486.193 294.545 487.989 293.584 489.945 293.194C491.9 292.804 493.928 293.003 495.77 293.766C497.613 294.528 499.188 295.82 500.296 297.478C501.404 299.136 501.996 301.085 501.996 303.08C501.994 304.403 501.732 305.714 501.224 306.936C500.716 308.159 499.972 309.269 499.035 310.204C498.098 311.139 496.986 311.88 495.762 312.385C494.539 312.89 493.228 313.15 491.904 313.148L491.927 313.16Z" stroke="#263238" stroke-linecap="round" stroke-linejoin="round"/>
<path d="M509.184 149.53C510.104 145.548 509.976 141.396 508.814 137.479C507.652 133.561 505.494 130.012 502.552 127.176C499.61 124.341 495.983 122.316 492.025 121.299C488.068 120.282 483.914 120.308 479.969 121.375C477.566 117.113 473.85 113.742 469.375 111.765C464.9 109.787 459.906 109.309 455.137 110.4C450.368 111.492 446.079 114.096 442.91 117.824C439.742 121.551 437.862 126.203 437.553 131.086C435.045 130.607 432.466 130.65 429.976 131.215C427.486 131.78 425.14 132.853 423.085 134.367C421.029 135.882 419.309 137.805 418.032 140.016C416.756 142.226 415.949 144.677 415.665 147.214C413.097 147.484 410.722 148.703 409.006 150.631C407.289 152.559 406.353 155.059 406.382 157.641C406.411 160.223 407.402 162.701 409.161 164.59C410.921 166.48 413.322 167.645 415.895 167.858H502.618C504.741 167.842 506.809 167.175 508.541 165.946C510.273 164.717 511.586 162.986 512.302 160.987C513.018 158.988 513.103 156.817 512.546 154.768C511.988 152.719 510.815 150.89 509.184 149.53Z" stroke="#263238" stroke-linecap="round" stroke-linejoin="round"/>
<path d="M461.526 159.932V183.836" stroke="#263238" stroke-linecap="round" stroke-linejoin="round"/>
<path d="M461.526 145.601V155.151" stroke="#263238" stroke-linecap="round" stroke-linejoin="round"/>
<path d="M461.526 136.662V141.777" stroke="#263238" stroke-linecap="round" stroke-linejoin="round"/>
<path d="M457.01 181.048L461.526 186.635L466.042 181.048" stroke="#263238" stroke-linecap="round" stroke-linejoin="round"/>
<path d="M244.961 429.869C245.878 425.887 245.749 421.735 244.585 417.818C243.421 413.901 241.262 410.352 238.319 407.517C235.376 404.682 231.749 402.657 227.792 401.64C223.834 400.623 219.68 400.649 215.735 401.714C213.334 397.449 209.618 394.075 205.142 392.096C200.666 390.117 195.67 389.639 190.9 390.732C186.13 391.826 181.841 394.433 178.674 398.165C175.508 401.896 173.633 406.552 173.33 411.437C172.191 411.219 171.034 411.107 169.874 411.103C165.317 411.099 160.918 412.775 157.518 415.809C154.118 418.844 151.955 423.025 151.442 427.553C148.874 427.822 146.499 429.039 144.781 430.967C143.064 432.894 142.127 435.393 142.154 437.975C142.182 440.556 143.171 443.035 144.929 444.926C146.688 446.816 149.088 447.983 151.661 448.197H238.464C240.585 448.174 242.647 447.502 244.374 446.271C246.101 445.039 247.408 443.308 248.12 441.31C248.832 439.312 248.914 437.144 248.355 435.099C247.797 433.053 246.624 431.227 244.996 429.869H244.961Z" stroke="#263238" stroke-linecap="round" stroke-linejoin="round"/>
<path d="M197.268 443.693V419.8" stroke="#263238" stroke-linecap="round" stroke-linejoin="round"/>
<path d="M197.268 458.035V448.474" stroke="#263238" stroke-linecap="round" stroke-linejoin="round"/>
<path d="M197.268 466.975V461.86" stroke="#263238" stroke-linecap="round" stroke-linejoin="round"/>
<path d="M201.784 422.588L197.268 417.001L192.753 422.588" stroke="#263238" stroke-linecap="round" stroke-linejoin="round"/>
<path d="M61.609 126.605H351.279C352.575 126.605 353.817 127.119 354.733 128.035C355.649 128.952 356.164 130.194 356.164 131.489V145.152H56.7245V131.489C56.7245 130.194 57.2391 128.952 58.1551 128.035C59.0711 127.119 60.3135 126.605 61.609 126.605Z" fill="#15B79E" stroke="#263238" stroke-linecap="round" stroke-linejoin="round"/>
<path d="M372.476 148.573H69.8342V361.544H372.476V148.573Z" fill="white" stroke="#263238" stroke-linecap="round" stroke-linejoin="round"/>
<path d="M377.107 135.867C377.107 136.778 376.837 137.669 376.331 138.427C375.824 139.185 375.105 139.775 374.263 140.124C373.421 140.473 372.494 140.564 371.6 140.386C370.706 140.209 369.885 139.77 369.241 139.125C368.596 138.481 368.158 137.66 367.98 136.766C367.802 135.872 367.893 134.946 368.242 134.104C368.591 133.261 369.181 132.542 369.939 132.035C370.697 131.529 371.588 131.259 372.499 131.259C373.721 131.259 374.893 131.744 375.758 132.609C376.622 133.473 377.107 134.645 377.107 135.867Z" fill="white" stroke="#263238" stroke-linecap="round" stroke-linejoin="round"/>
<path d="M360.795 135.867C360.795 136.778 360.525 137.669 360.018 138.427C359.512 139.185 358.792 139.775 357.95 140.124C357.108 140.473 356.182 140.564 355.288 140.386C354.394 140.209 353.573 139.77 352.929 139.125C352.284 138.481 351.845 137.66 351.667 136.766C351.49 135.872 351.581 134.946 351.93 134.104C352.278 133.261 352.869 132.542 353.627 132.035C354.385 131.529 355.275 131.259 356.187 131.259C357.409 131.259 358.581 131.744 359.445 132.609C360.309 133.473 360.795 134.645 360.795 135.867Z" fill="white" stroke="#263238" stroke-linecap="round" stroke-linejoin="round"/>
<path d="M344.448 135.867C344.448 136.778 344.178 137.669 343.671 138.427C343.165 139.185 342.445 139.775 341.603 140.124C340.761 140.473 339.835 140.564 338.941 140.386C338.047 140.209 337.226 139.77 336.582 139.125C335.937 138.481 335.498 137.66 335.321 136.766C335.143 135.872 335.234 134.946 335.583 134.104C335.932 133.261 336.522 132.542 337.28 132.035C338.038 131.529 338.929 131.259 339.84 131.259C341.062 131.259 342.234 131.744 343.098 132.609C343.963 133.473 344.448 134.645 344.448 135.867Z" fill="white" stroke="#263238" stroke-linecap="round" stroke-linejoin="round"/>
<path d="M363.306 157.709H351.325" stroke="#263238" stroke-width="2" stroke-linecap="round" stroke-linejoin="round"/>
<path d="M363.306 162.57H351.325" stroke="#263238" stroke-width="2" stroke-linecap="round" stroke-linejoin="round"/>
<path d="M363.306 167.432H351.325" stroke="#263238" stroke-width="2" stroke-linecap="round" stroke-linejoin="round"/>
<path d="M90.7891 283.369H181.486" stroke="#263238" stroke-width="2" stroke-linecap="round" stroke-linejoin="round"/>
<path d="M90.7891 290.523H181.486" stroke="#263238" stroke-width="2" stroke-linecap="round" stroke-linejoin="round"/>
<path d="M90.7891 297.804H162.305" stroke="#263238" stroke-width="2" stroke-linecap="round" stroke-linejoin="round"/>
<path d="M283.116 150.97V151.546" stroke="#263238" stroke-linecap="round" stroke-linejoin="round"/>
<path d="M283.116 155.002V355.715" stroke="#263238" stroke-linecap="round" stroke-linejoin="round" stroke-dasharray="1 3"/>
<path d="M283.116 357.443V358.019" stroke="#263238" stroke-linecap="round" stroke-linejoin="round"/>
<path d="M73.4746 313.782H74.0506" stroke="#263238" stroke-linecap="round" stroke-linejoin="round"/>
<path d="M77.495 313.782H365.541" stroke="#263238" stroke-linecap="round" stroke-linejoin="round" stroke-dasharray="1 2.99"/>
<path d="M367.269 313.782H367.845" stroke="#263238" stroke-linecap="round" stroke-linejoin="round"/>
<path d="M285.108 311.789H281.134V315.763H285.108V311.789Z" fill="white" stroke="#263238" stroke-linecap="round" stroke-linejoin="round"/>
<path d="M267.252 275.604H214.191" stroke="#263238" stroke-linecap="round" stroke-linejoin="round"/>
<path d="M268.278 300.142C268.278 300.142 268.278 275.478 240.722 275.478C213.166 275.478 213.12 300.142 213.12 300.142" stroke="#263238" stroke-linecap="round" stroke-linejoin="round"/>
<path d="M268.278 302.469C269.563 302.469 270.605 301.427 270.605 300.142C270.605 298.857 269.563 297.815 268.278 297.815C266.993 297.815 265.951 298.857 265.951 300.142C265.951 301.427 266.993 302.469 268.278 302.469Z" fill="#15B79E" stroke="#263238" stroke-linecap="round" stroke-linejoin="round"/>
<path d="M210.816 300.142C210.816 299.686 210.951 299.241 211.204 298.862C211.457 298.483 211.817 298.188 212.238 298.014C212.659 297.839 213.123 297.794 213.569 297.882C214.016 297.971 214.427 298.191 214.749 298.513C215.071 298.835 215.291 299.246 215.38 299.693C215.469 300.14 215.423 300.603 215.249 301.024C215.074 301.445 214.779 301.805 214.4 302.058C214.021 302.311 213.576 302.446 213.12 302.446C212.509 302.446 211.923 302.203 211.491 301.771C211.059 301.339 210.816 300.753 210.816 300.142Z" fill="#15B79E" stroke="#263238" stroke-linecap="round" stroke-linejoin="round"/>
<path d="M266.239 277.517H270.317V273.439H266.239V277.517Z" fill="#15B79E" stroke="#263238" stroke-linecap="round" stroke-linejoin="round"/>
<path d="M238.683 277.517H242.761V273.439H238.683V277.517Z" fill="#15B79E" stroke="#263238" stroke-linecap="round" stroke-linejoin="round"/>
<path d="M211.127 277.517H215.205V273.439H211.127V277.517Z" fill="#15B79E" stroke="#263238" stroke-linecap="round" stroke-linejoin="round"/>
<path d="M123.759 201.45V193.294L117.665 192.776C117.303 191.501 116.797 190.272 116.156 189.112L120.096 184.435L114.336 178.675L109.647 182.615C108.492 181.966 107.262 181.459 105.984 181.106L105.454 175H97.321L96.791 181.106C95.5165 181.457 94.29 181.964 93.1392 182.615L88.4506 178.675L82.6906 184.435L86.6304 189.112C85.9846 190.27 85.478 191.499 85.1213 192.776L79.0157 193.294V201.45L85.1213 201.969C85.48 203.244 85.9865 204.474 86.6304 205.632L82.6906 210.309L88.4506 216.069L93.1392 212.129C94.2828 212.778 95.5014 213.285 96.768 213.638L97.2979 219.744H105.443L105.972 213.638C107.246 213.285 108.472 212.778 109.624 212.129L114.313 216.069L120.073 210.309L116.133 205.632C116.772 204.471 117.278 203.243 117.642 201.969L123.759 201.45ZM101.376 206.842C99.5031 206.842 97.6723 206.286 96.1151 205.246C94.5578 204.205 93.3441 202.726 92.6274 200.996C91.9107 199.266 91.7231 197.362 92.0885 195.525C92.4539 193.688 93.3558 192.001 94.6801 190.676C96.0044 189.352 97.6917 188.45 99.5286 188.085C101.365 187.719 103.269 187.907 105 188.624C106.73 189.34 108.209 190.554 109.25 192.111C110.29 193.669 110.845 195.499 110.845 197.372C110.845 199.884 109.848 202.292 108.072 204.068C106.296 205.844 103.887 206.842 101.376 206.842Z" fill="#15B79E" stroke="#263238" stroke-linecap="round" stroke-linejoin="round"/>
<path d="M151.453 219.721V214.145L147.272 213.777C147.031 212.905 146.687 212.066 146.246 211.277L148.942 208.074L144.991 204.134L141.788 206.83C140.997 206.391 140.158 206.043 139.288 205.793L138.931 201.6H133.356L132.987 205.782C132.117 206.031 131.278 206.379 130.487 206.819L127.284 204.123L123.333 208.063L126.04 211.265C125.591 212.052 125.243 212.892 125.004 213.765L120.822 214.134V219.71L125.004 220.067C125.241 220.941 125.589 221.781 126.04 222.566L123.333 225.792L127.284 229.732L130.487 227.036C131.278 227.476 132.117 227.824 132.987 228.073L133.356 232.243H138.931L139.288 228.073C140.158 227.824 140.997 227.476 141.788 227.036L144.991 229.732L148.942 225.792L146.304 222.578C146.747 221.79 147.091 220.95 147.329 220.078L151.453 219.721ZM136.143 223.407C134.86 223.41 133.604 223.031 132.536 222.319C131.467 221.607 130.634 220.595 130.142 219.409C129.65 218.223 129.52 216.918 129.77 215.659C130.02 214.4 130.638 213.243 131.546 212.336C132.453 211.428 133.61 210.81 134.869 210.56C136.129 210.31 137.434 210.44 138.619 210.932C139.805 211.424 140.818 212.257 141.529 213.326C142.241 214.394 142.62 215.649 142.618 216.933C142.615 218.649 141.931 220.294 140.718 221.508C139.504 222.721 137.859 223.404 136.143 223.407Z" fill="#15B79E" stroke="#263238" stroke-linecap="round" stroke-linejoin="round"/>
<path d="M294.497 327.329H339.114" stroke="#263238" stroke-width="2" stroke-linecap="round" stroke-linejoin="round"/>
<path d="M294.497 334.483H339.114" stroke="#263238" stroke-width="2" stroke-linecap="round" stroke-linejoin="round"/>
<path d="M294.497 341.764H319.933" stroke="#263238" stroke-width="2" stroke-linecap="round" stroke-linejoin="round"/>
<path d="M235.711 344.736H212.221C210.694 344.736 209.229 344.129 208.148 343.049C207.068 341.969 206.461 340.504 206.461 338.976C206.461 337.448 207.068 335.983 208.148 334.903C209.229 333.823 210.694 333.216 212.221 333.216H235.711C237.238 333.216 238.703 333.823 239.784 334.903C240.864 335.983 241.471 337.448 241.471 338.976C241.471 340.504 240.864 341.969 239.784 343.049C238.703 344.129 237.238 344.736 235.711 344.736Z" fill="#15B79E" stroke="#263238" stroke-linecap="round" stroke-linejoin="round"/>
<path d="M279.487 344.736H255.997C254.47 344.736 253.005 344.129 251.925 343.049C250.844 341.969 250.237 340.504 250.237 338.976C250.237 337.448 250.844 335.983 251.925 334.903C253.005 333.823 254.47 333.216 255.997 333.216H279.487C281.014 333.216 282.479 333.823 283.56 334.903C284.64 335.983 285.247 337.448 285.247 338.976C285.247 340.504 284.64 341.969 283.56 343.049C282.479 344.129 281.014 344.736 279.487 344.736Z" fill="#15B79E" stroke="#263238" stroke-linecap="round" stroke-linejoin="round"/>
<path d="M347.57 221.15H297.757V270.962H347.57V221.15Z" fill="white" stroke="#263238" stroke-linecap="round" stroke-linejoin="round"/>
<path d="M297.757 221.15L347.57 270.962" stroke="#263238" stroke-linecap="round" stroke-linejoin="round"/>
<path d="M347.57 221.15L297.757 270.962" stroke="#263238" stroke-linecap="round" stroke-linejoin="round"/>
<path d="M317.295 164.598V176.221L312.169 181.348H300.545V164.598H317.295Z" fill="white" stroke="#263238" stroke-linecap="round" stroke-linejoin="round"/>
<path d="M317.295 176.221L312.169 181.348V176.221H317.295Z" fill="white" stroke="#263238" stroke-linecap="round" stroke-linejoin="round"/>
<path d="M139.162 254.488V266.112L134.035 271.25H122.412V254.488H139.162Z" fill="white" stroke="#263238" stroke-linecap="round" stroke-linejoin="round"/>
<path d="M139.162 266.112L134.035 271.25V266.112H139.162Z" fill="white" stroke="#263238" stroke-linecap="round" stroke-linejoin="round"/>
<path d="M75.8707 326.108V337.732L70.7443 342.858H59.1091V326.108H75.8707Z" fill="white" stroke="#263238" stroke-linecap="round" stroke-linejoin="round"/>
<path d="M75.8707 337.732L70.7443 342.858V337.732H75.8707Z" fill="white" stroke="#263238" stroke-linecap="round" stroke-linejoin="round"/>
<path d="M401.668 191.555H339.852V230.296H401.668V191.555Z" fill="#263238" stroke="#263238" stroke-linecap="round" stroke-linejoin="round"/>
<path d="M401.668 191.555H339.852V197.441H401.668V191.555Z" fill="#15B79E" stroke="#263238" stroke-linecap="round" stroke-linejoin="round"/>
<path d="M346.153 202.406H361.958" stroke="white" stroke-linecap="round" stroke-linejoin="round"/>
<path d="M354.056 206.819H381.404" stroke="white" stroke-linecap="round" stroke-linejoin="round"/>
<path d="M350.565 210.931H358.618" stroke="white" stroke-linecap="round" stroke-linejoin="round"/>
<path d="M354.056 215.781H372.476" stroke="white" stroke-linecap="round" stroke-linejoin="round"/>
<path d="M346.153 220.182H361.958" stroke="white" stroke-linecap="round" stroke-linejoin="round"/>
<path d="M169.183 347.432H107.366V386.173H169.183V347.432Z" fill="#263238" stroke="#263238" stroke-linecap="round" stroke-linejoin="round"/>
<path d="M169.183 347.432H107.366V353.318H169.183V347.432Z" fill="#15B79E" stroke="#263238" stroke-linecap="round" stroke-linejoin="round"/>
<path d="M113.679 358.295H129.473" stroke="white" stroke-linecap="round" stroke-linejoin="round"/>
<path d="M121.571 362.696H148.919" stroke="white" stroke-linecap="round" stroke-linejoin="round"/>
<path d="M118.08 366.808H126.132" stroke="white" stroke-linecap="round" stroke-linejoin="round"/>
<path d="M121.571 371.658H139.991" stroke="white" stroke-linecap="round" stroke-linejoin="round"/>
<path d="M113.679 376.07H129.473" stroke="white" stroke-linecap="round" stroke-linejoin="round"/>
<path d="M192.384 66.816H135.59C134.925 66.8191 134.288 67.0846 133.818 67.5549C133.348 68.0253 133.082 68.6623 133.079 69.3274V95.8234C133.082 96.4875 133.348 97.1233 133.819 97.5918C134.289 98.0602 134.926 98.3232 135.59 98.3232H161.05L163.953 108.691L166.867 98.3232H192.384C193.048 98.3232 193.685 98.0602 194.156 97.5918C194.626 97.1233 194.892 96.4875 194.895 95.8234V69.3274C194.892 68.6623 194.627 68.0253 194.156 67.5549C193.686 67.0846 193.049 66.8191 192.384 66.816Z" fill="#15B79E" stroke="#263238" stroke-linecap="round" stroke-linejoin="round"/>
<path d="M142.502 74.3962H185.414" stroke="#263238" stroke-width="2" stroke-linecap="round" stroke-linejoin="round"/>
<path d="M142.502 79.8336H185.414" stroke="#263238" stroke-width="2" stroke-linecap="round" stroke-linejoin="round"/>
<path d="M142.502 85.2711H185.414" stroke="#263238" stroke-width="2" stroke-linecap="round" stroke-linejoin="round"/>
<path d="M142.502 90.7085H174.839" stroke="#263238" stroke-width="2" stroke-linecap="round" stroke-linejoin="round"/>
<path d="M285.546 255.26C279.452 255.779 271.722 248.498 271.722 248.498C271.574 248.651 271.392 248.767 271.191 248.838C270.99 248.909 270.776 248.931 270.564 248.905C270.353 248.878 270.151 248.802 269.974 248.683C269.797 248.565 269.65 248.407 269.545 248.221C268.554 246.793 264.257 243.487 264.015 240.63C263.773 237.773 268.842 233.142 268.842 233.142C264.937 234.202 264.522 231.909 264.522 231.909C264.522 231.909 271.1 226.483 273.404 226.333C274.303 226.276 278.22 228.534 282.01 231.575C285.972 234.766 293.414 245.998 293.414 245.998C293.414 245.998 318.586 264.28 324.945 268.957C333.343 275.132 343.296 286.088 343.296 286.088C343.296 286.088 376.704 301.156 385.92 309.439L373.455 338.953C373.455 338.953 343.077 318.597 340.047 313.436C337.018 308.275 333.976 311.374 330.935 307.999C327.894 304.623 324.979 300.764 324.979 300.764C319.57 298.152 314.661 294.612 310.476 290.304C303.379 283.012 297.124 271.872 293.196 265.167C291.162 261.497 288.583 258.157 285.546 255.26Z" fill="white" stroke="#263238" stroke-linecap="round" stroke-linejoin="round"/>
<path d="M287.401 250.952C287.401 250.952 278.335 248.751 277.551 242.773C277.205 241.257 276.542 239.831 275.604 238.591C275.604 238.591 267.149 238.176 267.679 234.732L278.968 233.729C283.078 235.308 286.538 238.221 288.795 242.001" fill="white"/>
<path d="M287.401 250.952C287.401 250.952 278.335 248.751 277.551 242.773C277.205 241.257 276.542 239.831 275.604 238.591C275.604 238.591 267.149 238.176 267.679 234.732L278.968 233.729C283.078 235.308 286.538 238.221 288.795 242.001" stroke="#263238" stroke-linecap="round" stroke-linejoin="round"/>
<path d="M271.711 248.498C272.113 247.751 272.247 246.889 272.091 246.056C272.091 246.056 274.579 245.595 274.303 243.395C274.303 243.395 277.989 242.945 275.604 238.591" stroke="#263238" stroke-linecap="round" stroke-linejoin="round"/>
<path d="M274.303 243.395C274.303 243.395 269.338 239.72 268.785 238.038" stroke="#263238" stroke-linecap="round" stroke-linejoin="round"/>
<path d="M272.091 246.056C272.091 246.056 266.803 242.83 266.711 240.952" stroke="#263238" stroke-linecap="round" stroke-linejoin="round"/>
<path d="M273.3 229.49C273.3 229.49 271.619 232.508 268.831 233.142" stroke="#263238" stroke-linecap="round" stroke-linejoin="round"/>
<path d="M272.46 230.665C273.344 231.127 274.177 231.679 274.948 232.312" stroke="#263238" stroke-linecap="round" stroke-linejoin="round"/>
<path d="M465.546 332.698C452.511 327.181 439.064 322.69 425.33 319.265C405.101 314.531 372.338 310.303 372.338 310.303C372.338 310.303 381.347 402.232 378.973 407.762C376.6 413.292 362.362 431.862 362.362 431.862C362.362 431.862 439.419 461.906 452.851 464.463C466.284 467.021 459.279 420.399 459.279 420.399C459.279 420.399 473.472 361.14 465.546 332.698Z" fill="#263238"/>
<path d="M437.887 322.825C437.887 322.825 439.718 326.281 434.903 328.09C422.427 332.698 409.133 328.631 410.55 323.747C411.091 321.88 414.179 323.747 414.006 316.835C413.921 315.769 413.635 314.73 413.165 313.77C412.285 311.901 411.224 310.122 409.997 308.46C408.665 306.609 407.239 304.829 405.723 303.126C405.723 303.126 425.526 290.454 440.214 303.126C440.191 303.068 434.73 305.833 437.887 322.825Z" fill="white" stroke="#263238" stroke-linecap="round" stroke-linejoin="round"/>
<path d="M462.424 486.559C454.625 499.231 415.054 505.233 393.454 504.668C371.854 504.104 309.704 474.716 305.487 468.449C301.582 462.689 291.986 443.601 306.778 432.069C308.033 431.1 309.366 430.237 310.764 429.489C320.89 424.005 388.236 441.297 388.236 441.297C388.236 441.297 392.406 438.659 393.938 438.854C398.638 439.453 402.002 443.255 411.494 445.962C418.141 447.863 436.285 440.559 447.875 446.838C449.161 447.526 450.347 448.386 451.4 449.395C462.228 459.74 470.212 473.852 462.424 486.559Z" fill="#15B79E"/>
<mask id="mask0_20_2938" style="mask-type:luminance" maskUnits="userSpaceOnUse" x="298" y="428" width="168" height="77">
<path d="M462.424 486.559C454.625 499.231 415.054 505.233 393.454 504.668C371.854 504.104 309.704 474.716 305.487 468.449C301.582 462.689 291.986 443.601 306.778 432.069C308.033 431.1 309.366 430.237 310.764 429.489C320.89 424.005 388.236 441.297 388.236 441.297C388.236 441.297 392.406 438.659 393.938 438.854C398.638 439.453 402.002 443.255 411.494 445.962C418.141 447.863 436.285 440.559 447.875 446.838C449.161 447.526 450.347 448.386 451.4 449.395C462.228 459.74 470.212 473.852 462.424 486.559Z" fill="white"/>
</mask>
<g mask="url(#mask0_20_2938)">
<path opacity="0.3" d="M447.875 446.838C435.997 446.043 425.411 448.531 418.015 452.897C409.248 458.081 367.845 478.022 367.845 478.022C367.937 475.88 370.241 471.56 370.241 471.56C366.348 468.104 356.164 465.396 356.164 465.396C348.273 458.657 316.996 438.555 306.778 432.069C308.033 431.1 309.366 430.237 310.764 429.489C320.89 424.005 388.236 441.297 388.236 441.297C388.236 441.297 392.406 438.659 393.938 438.854C398.638 439.453 402.002 443.255 411.494 445.962C418.176 447.863 436.285 440.559 447.875 446.838Z" fill="black" fill-opacity="0.7"/>
</g>
<path d="M462.424 486.559C454.625 499.231 415.054 505.233 393.454 504.668C371.854 504.104 309.704 474.716 305.487 468.449C301.582 462.689 291.986 443.601 306.778 432.069C308.033 431.1 309.366 430.237 310.764 429.489C320.89 424.005 388.236 441.297 388.236 441.297C388.236 441.297 392.406 438.659 393.938 438.854C398.638 439.453 402.002 443.255 411.494 445.962C418.141 447.863 436.285 440.559 447.875 446.838C449.161 447.526 450.347 448.386 451.4 449.395C462.228 459.74 470.212 473.852 462.424 486.559Z" stroke="#263238" stroke-linecap="round" stroke-linejoin="round"/>
<path d="M450.282 498.033L451.273 502.376C451.273 502.376 448.623 509.887 436.977 511.119C425.33 512.352 418.429 514.921 412.785 515.255C409.834 515.488 406.868 515.442 403.926 515.117L402.774 513.412L450.282 498.033Z" fill="white" stroke="#263238" stroke-linecap="round" stroke-linejoin="round"/>
<path d="M382.648 497.572L402.831 513.412C412.559 512.58 422.225 511.134 431.77 509.08C441.331 506.869 449.683 503.701 450.132 499.346C450.835 492.733 443.762 490.925 435.364 491.178C433.797 491.178 432.184 491.34 430.56 491.501C417.116 492.941 400.02 485.522 400.02 485.522L382.648 497.572Z" fill="#263238"/>
<mask id="mask1_20_2938" style="mask-type:luminance" maskUnits="userSpaceOnUse" x="382" y="485" width="69" height="29">
<path d="M382.648 497.572L402.831 513.412C412.559 512.58 422.225 511.134 431.77 509.08C441.331 506.869 449.683 503.701 450.132 499.346C450.835 492.733 443.762 490.925 435.364 491.178C433.797 491.178 432.184 491.34 430.56 491.501C417.116 492.941 400.02 485.522 400.02 485.522L382.648 497.572Z" fill="white"/>
</mask>
<g mask="url(#mask1_20_2938)">
<path opacity="0.3" d="M450.144 499.185C446.226 500.642 442.466 502.495 438.924 504.714C438.924 504.714 420.18 514.357 391.369 504.426L382.648 497.572L400.02 485.51C400.02 485.51 417.105 492.941 430.56 491.489C432.184 491.317 433.797 491.201 435.364 491.167C443.704 490.913 450.72 492.687 450.144 499.185Z" fill="black" fill-opacity="0.7"/>
</g>
<path d="M382.648 497.572L402.831 513.412C412.559 512.58 422.225 511.134 431.77 509.08C441.331 506.869 449.683 503.701 450.132 499.346C450.835 492.733 443.762 490.925 435.364 491.178C433.797 491.178 432.184 491.34 430.56 491.501C417.116 492.941 400.02 485.522 400.02 485.522L382.648 497.572Z" stroke="#263238" stroke-linecap="round" stroke-linejoin="round"/>
<path d="M401.46 503.816C397.82 504.403 401.818 511.88 406.748 509.576C411.679 507.272 405.101 503.217 401.46 503.816Z" fill="white"/>
<mask id="mask2_20_2938" style="mask-type:luminance" maskUnits="userSpaceOnUse" x="400" y="503" width="9" height="8">
<path d="M401.46 503.816C397.82 504.403 401.818 511.88 406.748 509.576C411.679 507.272 405.101 503.217 401.46 503.816Z" fill="white"/>
</mask>
<g mask="url(#mask2_20_2938)">
<path opacity="0.2" d="M408.292 508.389C405.655 508.068 403.036 507.61 400.447 507.018C399.756 505.555 399.917 504.058 401.46 503.816C404.513 503.309 409.651 506.131 408.292 508.389Z" fill="black" fill-opacity="0.7"/>
</g>
<path d="M401.46 503.816C397.82 504.403 401.818 511.88 406.748 509.576C411.679 507.272 405.101 503.217 401.46 503.816Z" stroke="#263238" stroke-linecap="round" stroke-linejoin="round"/>
<path d="M431.77 509.069C441.331 506.857 449.683 503.689 450.132 499.335C450.835 492.722 443.762 490.913 435.364 491.167C434.995 491.524 426.851 499.392 431.77 509.069Z" fill="white"/>
<mask id="mask3_20_2938" style="mask-type:luminance" maskUnits="userSpaceOnUse" x="430" y="491" width="21" height="19">
<path d="M431.77 509.069C441.331 506.857 449.683 503.689 450.132 499.335C450.835 492.722 443.762 490.913 435.364 491.167C434.995 491.524 426.851 499.392 431.77 509.069Z" fill="white"/>
</mask>
<g mask="url(#mask3_20_2938)">
<path opacity="0.3" d="M450.144 499.185C446.226 500.642 442.466 502.495 438.924 504.714C436.398 505.882 433.752 506.766 431.032 507.352C427.807 498.482 435.018 491.501 435.364 491.167C443.704 490.913 450.72 492.687 450.144 499.185Z" fill="black" fill-opacity="0.7"/>
</g>
<path d="M431.77 509.069C441.331 506.857 449.683 503.689 450.132 499.335C450.835 492.722 443.762 490.913 435.364 491.167C434.995 491.524 426.851 499.392 431.77 509.069Z" stroke="#263238" stroke-linecap="round" stroke-linejoin="round"/>
<path d="M424.95 500.855H425.007C425.138 500.861 425.269 500.841 425.393 500.797C425.516 500.752 425.629 500.683 425.726 500.594C425.822 500.505 425.9 500.398 425.955 500.278C426.009 500.159 426.04 500.03 426.044 499.899C426.371 497.068 427.58 494.412 429.5 492.307C429.593 492.215 429.666 492.106 429.717 491.985C429.767 491.865 429.793 491.735 429.793 491.605C429.793 491.474 429.767 491.345 429.717 491.224C429.666 491.103 429.593 490.994 429.5 490.902C429.313 490.718 429.06 490.614 428.797 490.614C428.535 490.614 428.282 490.718 428.095 490.902C425.836 493.352 424.433 496.468 424.097 499.784C424.074 500.038 424.15 500.291 424.309 500.49C424.467 500.69 424.697 500.821 424.95 500.855Z" fill="white" stroke="#263238" stroke-linecap="round" stroke-linejoin="round"/>
<path d="M420.952 501.12H421.033C421.164 501.123 421.294 501.1 421.417 501.052C421.539 501.005 421.65 500.933 421.744 500.842C421.839 500.751 421.914 500.642 421.966 500.522C422.018 500.401 422.045 500.272 422.047 500.141C422.275 497.264 423.341 494.517 425.111 492.238C425.208 492.139 425.283 492.02 425.332 491.89C425.381 491.76 425.402 491.622 425.394 491.483C425.386 491.344 425.35 491.209 425.287 491.085C425.224 490.961 425.137 490.852 425.029 490.764C424.922 490.676 424.798 490.611 424.664 490.573C424.53 490.536 424.39 490.527 424.253 490.546C424.115 490.566 423.983 490.613 423.865 490.687C423.747 490.76 423.646 490.857 423.567 490.971C421.511 493.593 420.287 496.771 420.054 500.095C420.044 500.348 420.131 500.596 420.299 500.787C420.466 500.977 420.7 501.097 420.952 501.12Z" fill="white" stroke="#263238" stroke-linecap="round" stroke-linejoin="round"/>
<path d="M416.172 500.59C416.302 500.603 416.433 500.59 416.558 500.551C416.683 500.513 416.8 500.45 416.9 500.367C417.001 500.283 417.084 500.18 417.145 500.065C417.206 499.949 417.243 499.822 417.254 499.692C417.565 496.236 420.538 491.708 420.572 491.628C420.718 491.405 420.771 491.135 420.719 490.874C420.667 490.613 420.515 490.383 420.296 490.234C420.075 490.088 419.806 490.036 419.548 490.088C419.289 490.14 419.061 490.291 418.913 490.51C418.775 490.706 415.619 495.452 415.261 499.461C415.244 499.596 415.254 499.732 415.29 499.863C415.327 499.993 415.39 500.115 415.475 500.22C415.56 500.326 415.666 500.413 415.785 500.477C415.905 500.54 416.036 500.579 416.172 500.59Z" fill="white" stroke="#263238" stroke-linecap="round" stroke-linejoin="round"/>
<path d="M411.656 500.118C411.744 500.129 411.833 500.129 411.921 500.118C412.05 500.097 412.175 500.05 412.287 499.981C412.398 499.912 412.495 499.821 412.571 499.713C412.647 499.606 412.701 499.485 412.73 499.356C412.759 499.228 412.762 499.095 412.739 498.966C412.036 494.727 415.976 491.098 416.01 491.063C416.141 490.879 416.205 490.656 416.193 490.431C416.181 490.205 416.093 489.991 415.944 489.821C415.795 489.652 415.592 489.538 415.37 489.498C415.148 489.458 414.919 489.494 414.72 489.6C414.524 489.773 409.928 493.989 410.815 499.323C410.857 499.525 410.96 499.71 411.111 499.852C411.261 499.994 411.451 500.087 411.656 500.118Z" fill="white" stroke="#263238" stroke-linecap="round" stroke-linejoin="round"/>
<path d="M406.748 498.931C406.855 498.948 406.964 498.948 407.071 498.931C407.319 498.871 407.534 498.718 407.674 498.504C407.813 498.29 407.865 498.03 407.82 497.779C406.956 494.001 410.676 489.715 410.723 489.715C410.895 489.516 410.982 489.257 410.965 488.994C410.948 488.731 410.828 488.485 410.63 488.31C410.533 488.222 410.419 488.155 410.296 488.111C410.172 488.068 410.042 488.05 409.911 488.057C409.78 488.065 409.652 488.098 409.535 488.155C409.417 488.212 409.312 488.292 409.225 488.39C409.041 488.598 404.778 493.471 405.873 498.263C405.936 498.449 406.053 498.611 406.209 498.73C406.365 498.849 406.552 498.919 406.748 498.931Z" fill="white" stroke="#263238" stroke-linecap="round" stroke-linejoin="round"/>
<path d="M302.976 491.535L301.536 495.752C301.536 495.752 303.379 503.505 314.83 505.947C326.281 508.389 332.87 511.707 338.4 512.605C341.311 513.141 344.265 513.403 347.224 513.389L348.549 511.811L302.976 491.535Z" fill="white" stroke="#263238" stroke-linecap="round" stroke-linejoin="round"/>
<path d="M370.241 498.182L348.515 511.811C338.927 509.964 329.465 507.513 320.187 504.472C310.913 501.27 302.907 497.238 302.907 492.86C302.907 486.202 310.13 485.153 318.459 486.282C320.014 486.49 321.604 486.778 323.205 487.112C336.419 489.957 354.194 484.37 354.194 484.37L370.241 498.182Z" fill="#263238"/>
<mask id="mask4_20_2938" style="mask-type:luminance" maskUnits="userSpaceOnUse" x="302" y="484" width="69" height="28">
<path d="M370.241 498.182L348.515 511.811C338.927 509.964 329.465 507.513 320.187 504.472C310.913 501.27 302.907 497.238 302.907 492.86C302.907 486.202 310.13 485.153 318.459 486.282C320.014 486.49 321.604 486.778 323.205 487.112C336.419 489.957 354.194 484.37 354.194 484.37L370.241 498.182Z" fill="white"/>
</mask>
<g mask="url(#mask4_20_2938)">
<path opacity="0.3" d="M370.241 498.182L357.466 506.246C347.106 503.029 338.022 496.633 331.5 487.964C339.201 487.795 346.844 486.598 354.228 484.405L370.241 498.182Z" fill="black" fill-opacity="0.7"/>
</g>
<path d="M370.241 498.182L348.515 511.811C338.927 509.964 329.465 507.513 320.187 504.472C310.913 501.27 302.907 497.238 302.907 492.86C302.907 486.202 310.13 485.153 318.459 486.282C320.014 486.49 321.604 486.778 323.205 487.112C336.419 489.957 354.194 484.37 354.194 484.37L370.241 498.182Z" stroke="#263238" stroke-linecap="round" stroke-linejoin="round"/>
<path d="M320.187 504.461C310.913 501.258 302.907 497.226 302.907 492.849C302.907 486.19 310.13 485.142 318.459 486.271C318.828 486.663 326.097 495.36 320.187 504.461Z" fill="white" stroke="#263238" stroke-linecap="round" stroke-linejoin="round"/>
<path d="M327.836 497.007H327.779C327.514 496.99 327.266 496.869 327.09 496.671C326.913 496.472 326.821 496.213 326.834 495.948C326.816 493.104 325.9 490.338 324.219 488.045C324.121 487.944 324.045 487.824 323.997 487.692C323.948 487.56 323.928 487.42 323.937 487.28C323.947 487.14 323.985 487.003 324.051 486.879C324.116 486.754 324.207 486.645 324.318 486.559C324.428 486.472 324.556 486.409 324.692 486.375C324.828 486.34 324.97 486.335 325.108 486.359C325.247 486.383 325.378 486.435 325.495 486.513C325.612 486.592 325.711 486.693 325.786 486.812C327.773 489.472 328.841 492.707 328.827 496.028C328.824 496.289 328.718 496.538 328.533 496.721C328.347 496.905 328.097 497.007 327.836 497.007Z" fill="white" stroke="#263238" stroke-linecap="round" stroke-linejoin="round"/>
<path d="M331.776 497.664H331.684C331.42 497.641 331.176 497.513 331.005 497.311C330.835 497.108 330.751 496.845 330.774 496.581C330.856 493.702 330.091 490.862 328.573 488.413C328.498 488.305 328.444 488.182 328.416 488.052C328.388 487.923 328.386 487.789 328.409 487.658C328.433 487.528 328.482 487.403 328.553 487.292C328.625 487.18 328.718 487.084 328.827 487.008C328.936 486.932 329.059 486.879 329.188 486.851C329.318 486.823 329.452 486.82 329.582 486.844C329.713 486.867 329.837 486.916 329.949 486.988C330.06 487.06 330.157 487.153 330.232 487.261C332.012 490.082 332.895 493.375 332.767 496.708C332.755 496.964 332.646 497.205 332.462 497.383C332.277 497.561 332.032 497.661 331.776 497.664Z" fill="white" stroke="#263238" stroke-linecap="round" stroke-linejoin="round"/>
<path d="M336.591 497.664C336.327 497.658 336.075 497.549 335.889 497.359C335.704 497.17 335.601 496.915 335.601 496.65C335.67 493.137 333.181 488.379 333.147 488.333C333.025 488.096 333.001 487.82 333.081 487.566C333.161 487.311 333.338 487.099 333.573 486.974C333.809 486.852 334.082 486.829 334.335 486.909C334.588 486.988 334.798 487.165 334.921 487.4C335.036 487.607 337.674 492.653 337.605 496.685C337.599 496.949 337.489 497.2 337.299 497.383C337.11 497.566 336.855 497.667 336.591 497.664Z" fill="white" stroke="#263238" stroke-linecap="round" stroke-linejoin="round"/>
<path d="M341.13 497.664H340.865C340.611 497.592 340.395 497.421 340.265 497.19C340.136 496.959 340.103 496.686 340.174 496.431C341.326 492.296 337.789 488.264 337.755 488.229C337.655 488.134 337.576 488.019 337.522 487.892C337.469 487.764 337.442 487.627 337.444 487.489C337.446 487.351 337.477 487.215 337.534 487.089C337.591 486.963 337.674 486.851 337.776 486.758C337.879 486.666 338 486.596 338.131 486.552C338.262 486.509 338.4 486.493 338.538 486.506C338.675 486.518 338.809 486.559 338.93 486.626C339.051 486.692 339.157 486.783 339.241 486.893C339.414 487.089 343.549 491.766 342.098 496.973C342.03 497.175 341.9 497.351 341.726 497.475C341.552 497.599 341.344 497.665 341.13 497.664Z" fill="white" stroke="#263238" stroke-linecap="round" stroke-linejoin="round"/>
<path d="M346.141 497.007C346.031 497.012 345.921 496.992 345.819 496.95C345.693 496.91 345.577 496.845 345.477 496.758C345.378 496.672 345.296 496.567 345.238 496.449C345.18 496.33 345.146 496.201 345.139 496.07C345.132 495.938 345.152 495.806 345.197 495.683C346.452 492.019 343.192 487.377 343.169 487.331C343.075 487.225 343.004 487.102 342.961 486.967C342.918 486.832 342.903 486.69 342.919 486.55C342.935 486.409 342.98 486.274 343.052 486.152C343.124 486.031 343.22 485.925 343.335 485.844C343.451 485.762 343.582 485.705 343.72 485.678C343.859 485.651 344.002 485.653 344.14 485.684C344.277 485.716 344.407 485.776 344.519 485.862C344.632 485.947 344.726 486.055 344.794 486.179C344.955 486.397 348.676 491.697 347.098 496.351C347.025 496.545 346.894 496.712 346.723 496.829C346.552 496.947 346.349 497.009 346.141 497.007Z" fill="white" stroke="#263238" stroke-linecap="round" stroke-linejoin="round"/>
<path d="M350.876 502.41C354.436 503.39 349.724 510.359 345.012 507.594C340.301 504.83 347.328 501.443 350.876 502.41Z" fill="white" stroke="#263238" stroke-linecap="round" stroke-linejoin="round"/>
<path d="M309.796 465.408C315.13 472.885 330.947 481.144 346.66 487.953C349.47 492.607 352.785 496.938 356.544 500.867C366.244 510.843 370.195 505.256 370.195 505.256C370.195 505.256 376.324 504.565 385.367 503.332C385.743 504.209 386.4 504.937 387.233 505.402C388.067 505.866 389.031 506.042 389.975 505.901C391.127 505.717 393.431 504.035 395.977 501.811C418.821 498.355 449.821 492.595 458.185 485.891" fill="#15B79E"/>
<path d="M309.796 465.408C315.13 472.885 330.947 481.144 346.66 487.953C349.47 492.607 352.785 496.938 356.544 500.867C366.244 510.843 370.195 505.256 370.195 505.256C370.195 505.256 376.324 504.565 385.367 503.332C385.743 504.209 386.4 504.937 387.233 505.402C388.067 505.866 389.031 506.042 389.975 505.901C391.127 505.717 393.431 504.035 395.977 501.811C418.821 498.355 449.821 492.595 458.185 485.891" stroke="#263238" stroke-linecap="round" stroke-linejoin="round"/>
<path d="M449.28 451.169C445.329 446.826 441.377 446.63 433.083 447.218C433.083 447.218 411.437 454.13 396.334 463.219C381.231 472.309 359.205 481.951 359.205 481.951C359.205 481.951 352.489 480.004 347.812 481.951C347.812 481.951 344.529 482.204 346.729 487.941" stroke="#263238" stroke-linecap="round" stroke-linejoin="round"/>
<path d="M459.325 477.124C459.325 477.124 459.441 483.817 449.948 488.448" stroke="#263238" stroke-linecap="round" stroke-linejoin="round"/>
<path d="M354.632 449.199C354.632 449.199 369.608 460.028 372.614 467.171C375.558 468.411 378.4 469.879 381.116 471.56" stroke="#263238" stroke-linecap="round" stroke-linejoin="round"/>
<path d="M373.697 458.197C374.796 461.309 374.979 464.671 374.227 467.885" stroke="#263238" stroke-linecap="round" stroke-linejoin="round"/>
<path d="M370.241 451.169C371.057 452.356 371.774 453.609 372.384 454.913" stroke="#263238" stroke-linecap="round" stroke-linejoin="round"/>
<path d="M391.576 450.179C391.576 450.179 396.587 456.883 397.832 462.321" stroke="#263238" stroke-linecap="round" stroke-linejoin="round"/>
<path d="M419.489 490.683C421.353 490.573 423.208 490.342 425.042 489.992" stroke="#263238" stroke-linecap="round" stroke-linejoin="round"/>
<path d="M372.476 485.879C386.676 488.692 401.081 490.345 415.549 490.821" stroke="#263238" stroke-linecap="round" stroke-linejoin="round"/>
<path d="M473.841 384.296C473.841 384.296 471.133 431.528 467.942 434.235C464.751 436.942 459.717 437.783 450.19 438.578C440.663 439.373 398.523 441.953 398.523 441.953L393.984 428.417C393.984 428.417 416.39 426.113 426.332 422.485C433.828 419.922 441.496 417.897 449.28 416.425C449.28 416.425 447.391 404.548 447.391 399.433V375.379" fill="white"/>
<path d="M473.841 384.296C473.841 384.296 471.133 431.528 467.942 434.235C464.751 436.942 459.717 437.783 450.19 438.578C440.663 439.373 398.523 441.953 398.523 441.953L393.984 428.417C393.984 428.417 416.39 426.113 426.332 422.485C433.828 419.922 441.496 417.897 449.28 416.425C449.28 416.425 447.391 404.548 447.391 399.433V375.379" stroke="#263238" stroke-linecap="round" stroke-linejoin="round"/>
<path d="M465.546 332.698C475.811 339.022 478.84 353.641 475.292 384.849C475.292 384.849 478.322 388.535 473.841 390.378C473.841 390.378 457.056 384.1 449.257 388.431C441.458 392.763 443.497 382.453 443.497 382.453C443.497 382.453 440.283 353.745 447.391 348.549" fill="#263238"/>
<path d="M446.446 344.16C446.446 344.16 436.573 354.424 445.294 380.367C444.744 382.485 444.359 384.642 444.142 386.819C444.142 388.558 446.527 389.457 446.527 389.457" stroke="white" stroke-linecap="round" stroke-linejoin="round"/>
<path d="M434.903 361.544C434.903 361.544 435.617 374.216 443.474 379.711" stroke="white" stroke-linecap="round" stroke-linejoin="round"/>
<path d="M437.437 332.122C437.437 332.122 422.127 337.985 409.951 331.488C402.728 327.64 405.7 321.454 405.7 321.454" stroke="white" stroke-linecap="round" stroke-linejoin="round"/>
<path d="M327.341 451.192H410.676C412.559 451.193 414.433 450.949 416.252 450.467L432.691 446.158C432.919 446.099 433.12 445.967 433.264 445.781C433.408 445.596 433.486 445.368 433.486 445.133C433.486 444.849 433.373 444.576 433.172 444.375C432.971 444.174 432.699 444.062 432.415 444.062H323.896C323.614 444.065 323.345 444.179 323.146 444.379C322.948 444.58 322.836 444.851 322.836 445.133V446.688C322.836 447.883 323.311 449.028 324.156 449.873C325.001 450.718 326.146 451.192 327.341 451.192Z" fill="#757575" stroke="#263238" stroke-linecap="round" stroke-linejoin="round"/>
<path d="M319.104 447.045H402.67C402.997 447.06 403.323 446.994 403.619 446.852C403.914 446.71 404.169 446.497 404.362 446.233C404.555 445.968 404.679 445.659 404.724 445.335C404.768 445.01 404.732 444.679 404.617 444.373L389.123 384.088C388.915 383.349 388.481 382.692 387.882 382.211C387.283 381.73 386.549 381.448 385.782 381.404H302.193C301.865 381.391 301.539 381.46 301.244 381.603C300.949 381.746 300.694 381.96 300.501 382.226C300.309 382.491 300.185 382.8 300.14 383.125C300.095 383.45 300.132 383.781 300.246 384.088L315.752 444.373C315.959 445.114 316.394 445.771 316.996 446.251C317.598 446.73 318.335 447.008 319.104 447.045Z" fill="#999999" stroke="#263238" stroke-linecap="round" stroke-linejoin="round"/>
<path d="M305.142 383.547H303.564" stroke="#263238" stroke-linecap="round" stroke-linejoin="round"/>
<path d="M317.388 383.547H309.231" stroke="#263238" stroke-linecap="round" stroke-linejoin="round"/>
<path d="M400.643 439.431L386.957 386.231C386.751 385.492 386.32 384.836 385.723 384.355C385.126 383.874 384.393 383.591 383.628 383.547H319.231" stroke="#263238" stroke-linecap="round" stroke-linejoin="round"/>
<path d="M401.829 444.061L401.484 442.737" stroke="#263238" stroke-linecap="round" stroke-linejoin="round"/>
<path d="M344.229 415.745C344.286 416.233 344.386 416.715 344.529 417.185C345.588 420.814 348.987 423.026 352.109 422.104C355.231 421.183 356.901 417.496 355.841 413.868C354.781 410.239 351.36 408.027 348.238 408.948C347.874 409.06 347.522 409.211 347.19 409.398C347.361 410.629 347.173 411.883 346.648 413.009C346.123 414.136 345.282 415.086 344.229 415.745Z" fill="white" stroke="#263238" stroke-linecap="round" stroke-linejoin="round"/>
<path d="M381.116 302.769C373.882 301.985 369.942 295.108 365.587 294.037C363.158 293.455 360.777 292.685 358.468 291.733C358.468 291.733 356.97 286.502 354.724 288.277C352.477 290.051 349.528 329.173 352.42 327.94C355.311 326.707 355.323 331.327 355.323 331.327L382.176 354.989L404.686 315.13C404.686 315.13 388.351 303.564 381.116 302.769Z" fill="#263238"/>
<path d="M162.294 163.457V162.881H162.87" stroke="#263238" stroke-linecap="round" stroke-linejoin="round"/>
<path d="M166.257 162.881H263.716" stroke="#263238" stroke-linecap="round" stroke-linejoin="round" stroke-dasharray="0.98 2.93"/>
<path d="M265.398 162.881H265.974V163.457" stroke="#263238" stroke-linecap="round" stroke-linejoin="round"/>
<path d="M265.985 166.913V229.697" stroke="#263238" stroke-linecap="round" stroke-linejoin="round" stroke-dasharray="1 3"/>
<path d="M265.974 231.425V232.001H265.398" stroke="#263238" stroke-linecap="round" stroke-linejoin="round"/>
<path d="M262.022 232.001H164.563" stroke="#263238" stroke-linecap="round" stroke-linejoin="round" stroke-dasharray="0.98 2.93"/>
<path d="M162.87 232.001H162.294V231.425" stroke="#263238" stroke-linecap="round" stroke-linejoin="round"/>
<path d="M162.305 227.969V165.185" stroke="#263238" stroke-linecap="round" stroke-linejoin="round" stroke-dasharray="1 3"/>
<path d="M214.145 164.586C215.087 164.586 215.85 163.823 215.85 162.881C215.85 161.94 215.087 161.176 214.145 161.176C213.204 161.176 212.44 161.94 212.44 162.881C212.44 163.823 213.204 164.586 214.145 164.586Z" fill="#15B79E" stroke="#263238" stroke-linecap="round" stroke-linejoin="round"/>
<path d="M162.305 199.146C163.247 199.146 164.01 198.383 164.01 197.441C164.01 196.5 163.247 195.736 162.305 195.736C161.364 195.736 160.6 196.5 160.6 197.441C160.6 198.383 161.364 199.146 162.305 199.146Z" fill="#15B79E" stroke="#263238" stroke-linecap="round" stroke-linejoin="round"/>
<path d="M214.145 233.706C215.087 233.706 215.85 232.943 215.85 232.001C215.85 231.06 215.087 230.296 214.145 230.296C213.204 230.296 212.44 231.06 212.44 232.001C212.44 232.943 213.204 233.706 214.145 233.706Z" fill="#15B79E" stroke="#263238" stroke-linecap="round" stroke-linejoin="round"/>
<path d="M265.985 199.146C266.927 199.146 267.69 198.383 267.69 197.441C267.69 196.5 266.927 195.736 265.985 195.736C265.044 195.736 264.28 196.5 264.28 197.441C264.28 198.383 265.044 199.146 265.985 199.146Z" fill="#15B79E" stroke="#263238" stroke-linecap="round" stroke-linejoin="round"/>
<path d="M267.967 230.02H263.992V233.994H267.967V230.02Z" fill="#15B79E" stroke="#263238" stroke-linecap="round" stroke-linejoin="round"/>
<path d="M267.967 160.9H263.992V164.874H267.967V160.9Z" fill="#15B79E" stroke="#263238" stroke-linecap="round" stroke-linejoin="round"/>
<path d="M164.287 230.02H160.312V233.994H164.287V230.02Z" fill="#15B79E" stroke="#263238" stroke-linecap="round" stroke-linejoin="round"/>
<path d="M164.287 160.9H160.312V164.874H164.287V160.9Z" fill="#15B79E" stroke="#263238" stroke-linecap="round" stroke-linejoin="round"/>
<path d="M259.419 168.998H169.183V226.333H259.419V168.998Z" fill="white" stroke="#263238" stroke-linecap="round" stroke-linejoin="round"/>
<path d="M259.419 209.399L249.385 219.433L222.244 192.292L210.828 203.708L192.626 185.507L169.183 208.938V226.333H259.419V209.399Z" fill="#15B79E" stroke="#263238" stroke-linecap="round" stroke-linejoin="round"/>
<path d="M240.722 191.647C244.24 191.647 247.092 188.795 247.092 185.276C247.092 181.758 244.24 178.906 240.722 178.906C237.204 178.906 234.351 181.758 234.351 185.276C234.351 188.795 237.204 191.647 240.722 191.647Z" fill="#15B79E" stroke="#263238" stroke-linecap="round" stroke-linejoin="round"/>
<path d="M385.92 313.344C385.92 313.344 379.008 326.212 378.19 345.9" stroke="white" stroke-linecap="round" stroke-linejoin="round"/>
<path d="M365.599 322.249C365.599 322.249 367.661 333.193 373.663 341.119" stroke="white" stroke-linecap="round" stroke-linejoin="round"/>
<path d="M393.984 367.407C393.984 367.407 404.352 401.461 426.874 411.483" stroke="white" stroke-linecap="round" stroke-linejoin="round"/>
<path d="M421.263 305.764C421.263 305.764 420.284 313.194 413.142 313.713C412.262 311.843 411.201 310.065 409.974 308.402C413.683 307.304 417.452 306.424 421.263 305.764Z" fill="#263238"/>
<path d="M436.481 306.282C436.481 306.282 448.428 307.745 453.427 291.709C458.427 275.674 454.499 263.589 434.73 257.772C423.763 254.546 412.842 257.138 408.845 265.444C405.458 272.552 407.059 278.461 406.287 280.846C405.412 283.519 397.325 285.788 397.325 287.62C397.325 289.129 401.806 291.709 401.806 291.709L400.493 295.695L401.725 296.352C401.725 296.352 399.421 305.326 400.493 308.494C401.253 310.798 421.494 311.766 423.072 306.029" fill="white"/>
<path d="M436.481 306.282C436.481 306.282 448.428 307.745 453.427 291.709C458.427 275.674 454.499 263.589 434.73 257.772C423.763 254.546 412.842 257.138 408.845 265.444C405.458 272.552 407.059 278.461 406.287 280.846C405.412 283.519 397.325 285.788 397.325 287.62C397.325 289.129 401.806 291.709 401.806 291.709L400.493 295.695L401.725 296.352C401.725 296.352 399.421 305.326 400.493 308.494C401.253 310.798 421.494 311.766 423.072 306.029" stroke="#263238" stroke-linecap="round" stroke-linejoin="round"/>
<path d="M408.96 271.261C408.96 271.261 412.911 272.252 413.994 274.326" stroke="#263238" stroke-linecap="round" stroke-linejoin="round"/>
<path d="M409.651 280.374C409.478 281.526 409.743 282.528 410.25 282.597C410.757 282.666 411.287 281.791 411.46 280.627C411.633 279.464 411.356 278.473 410.861 278.404C410.365 278.335 409.824 279.21 409.651 280.374Z" fill="#263238"/>
<path d="M401.725 296.352C401.725 296.352 408.154 298.817 410.55 297.331" stroke="#263238" stroke-linecap="round" stroke-linejoin="round"/>
<path d="M403.983 279.452C403.511 282.033 404.087 284.291 405.274 284.509C406.46 284.728 407.82 282.828 408.292 280.259C408.764 277.69 408.2 275.409 407.002 275.19C405.804 274.971 404.467 276.883 403.983 279.452Z" stroke="#263238" stroke-linecap="round" stroke-linejoin="round"/>
<path d="M453.957 266.331C452.995 261.663 450.314 257.527 446.446 254.742C442.135 251.714 437.197 249.694 432 248.832C432 248.832 435.813 250.502 437.265 252.703C437.265 252.703 427.392 245.284 415.665 250.157C403.937 255.03 405.4 267.69 405.4 267.69L407.105 264.373C407.105 264.373 406.909 268.324 408.983 269.775C409.604 267.84 410.451 265.984 411.506 264.246C411.506 264.246 414.616 273.589 423.176 276.757C422.594 275.284 422.545 273.654 423.037 272.149C423.037 272.149 427.784 282.413 426.401 287.424L427.91 290.051C427.91 290.051 433.359 284.532 437.795 289.129C440.34 291.779 432.922 301.801 431.862 301.801L436.343 308.379C436.343 308.379 447.54 309.98 453.992 297.85C460.443 285.719 458.865 280.57 458.865 280.57C458.865 280.57 460.973 283.519 461.169 285.178C461.192 285.155 463.104 272.125 453.957 266.331Z" fill="#263238"/>
<path d="M427.611 291.214C427.611 291.214 431.067 279.602 438.417 283.692C445.766 287.781 440.525 293.979 437.887 296.364C435.249 298.748 433.279 303.08 431.562 303.08C429.846 303.08 429.466 300.972 429.466 300.972" fill="white"/>
<path d="M427.611 291.214C427.611 291.214 431.067 279.602 438.417 283.692C445.766 287.781 440.525 293.979 437.887 296.364C435.249 298.748 433.279 303.08 431.562 303.08C429.846 303.08 429.466 300.972 429.466 300.972" stroke="#263238" stroke-linecap="round" stroke-linejoin="round"/>
<path d="M408.292 280.259L428.797 284.51" stroke="#263238" stroke-linecap="round" stroke-linejoin="round"/>
</svg>