<svg width="16" height="17" viewBox="0 0 16 17" fill="none" xmlns="http://www.w3.org/2000/svg">
<g clip-path="url(#clip0_20_3464)">
<path d="M14.3553 5.60038C14.3655 5.7425 14.3655 5.88466 14.3655 6.02678C14.3655 10.3618 11.066 15.3567 5.03553 15.3567C3.17766 15.3567 1.45178 14.8186 0 13.8847C0.263969 13.9151 0.51775 13.9253 0.791875 13.9253C2.32484 13.9253 3.73603 13.4075 4.86294 12.5243C3.42131 12.4938 2.21319 11.5496 1.79694 10.2501C2 10.2806 2.20303 10.3009 2.41625 10.3009C2.71066 10.3009 3.00509 10.2603 3.27919 10.1892C1.77666 9.88463 0.649719 8.56485 0.649719 6.97094V6.93035C1.08625 7.174 1.59391 7.32628 2.13194 7.34657C1.24869 6.75772 0.670031 5.75266 0.670031 4.6156C0.670031 4.00647 0.832438 3.4481 1.11672 2.96079C2.73094 4.95063 5.15734 6.2501 7.87813 6.39225C7.82738 6.1486 7.79691 5.89482 7.79691 5.641C7.79691 3.83388 9.25884 2.36182 11.0761 2.36182C12.0203 2.36182 12.873 2.75775 13.472 3.39735C14.2131 3.25522 14.9238 2.9811 15.5533 2.60547C15.3096 3.36691 14.7918 4.0065 14.1116 4.41257C14.7715 4.34154 15.4111 4.15875 15.9999 3.90497C15.5533 4.55469 14.9949 5.13335 14.3553 5.60038Z" fill="#475467"/>
</g>
<defs>
<clipPath id="clip0_20_3464">
<rect width="16" height="16" fill="white" transform="translate(0 0.859375)"/>
</clipPath>
</defs>
</svg>